<?xml version="1.0" standalone="no"?>
<!DOCTYPE svg PUBLIC "-//W3C//DTD SVG 1.1//EN" "http://www.w3.org/Graphics/SVG/1.1/DTD/svg11.dtd" >
<svg xmlns="http://www.w3.org/2000/svg" xmlns:xlink="http://www.w3.org/1999/xlink" version="1.1">
<metadata>
Created by FontForge 20200511 at Mon Dec 26 00:05:46 2022
 By convertio
</metadata>
<defs>
<font id="Unnamed-Regular" horiz-adv-x="1000" >
  <font-face 
    font-family="Satoshi"
    font-weight="400"
    font-stretch="normal"
    units-per-em="1000"
    panose-1="2 0 0 9 0 0 0 0 0 0"
    ascent="750"
    descent="-250"
    x-height="700"
    cap-height="700"
    bbox="-0.444444 -196 1050 1006"
    underline-thickness="50"
    underline-position="-125"
    stemh="101"
    stemv="62"
    unicode-range="U+000D-1F892"
  />
<missing-glyph horiz-adv-x="500" 
 />
    <glyph glyph-name=".notdef" horiz-adv-x="500" 
 />
    <glyph glyph-name="uni0000" horiz-adv-x="0" 
 />
    <glyph glyph-name="uni000D" unicode="&#xd;" horiz-adv-x="250" 
 />
    <glyph glyph-name="space" unicode=" " horiz-adv-x="900" 
 />
    <glyph glyph-name="exclam" unicode="!" horiz-adv-x="965" 
d="M300 700v-501h-99v501h99zM300 101v-101h-99v101h99z" />
    <glyph glyph-name="quotedbl" unicode="&#x22;" horiz-adv-x="900" 
d="M315 454v296h105v-296h-105zM479 454v296l105 -1v-295h-105z" />
    <glyph glyph-name="numbersign" unicode="#" horiz-adv-x="900" 
d="M601 398h-187l-26 -96h188zM843 301v-103h-190l-53 -198c-33 9 -64 17 -97 26l45 169l-188 1l-53 -196c-33 9 -64 17 -97 26l46 171h-203v104h231l26 97h-160v101h187l54 201c32 -9 63 -17 97 -26l-47 -174h188l54 200c33 -9 65 -17 97 -26l-46 -175h110l2 -99l-139 -1
l-27 -98h163z" />
    <glyph glyph-name="quotesingle" unicode="'" horiz-adv-x="900" 
d="M481 399v96c56 3 99 44 99 101h-99v100h197v-2c0 -39 3 -80 -1 -119c-9 -90 -84 -166 -174 -174c-2 -1 -4 -1 -6 -2h-16z" />
    <glyph glyph-name="parenleft" unicode="(" horiz-adv-x="900" 
d="M800 695c-27 0 -53 1 -80 -2c-128 -9 -222 -119 -222 -246v-206c0 -117 80 -215 195 -241c25 -6 51 -6 76 -5h31v-100h-115l-15 3c-128 20 -234 118 -264 243c-4 18 -6 37 -9 55v293c1 9 2 18 4 27c23 147 143 262 292 274c36 2 71 1 107 1v-96z" />
    <glyph glyph-name="parenright" unicode=")" horiz-adv-x="900" 
d="M100 695v96c36 0 71 1 107 -1c149 -12 269 -127 292 -274c2 -9 3 -18 4 -27v-293c-3 -18 -5 -37 -9 -55c-30 -125 -136 -223 -264 -243c-5 -1 -10 -2 -14 -3h-116v100h31c26 -1 51 -1 76 5c115 26 195 124 195 241v206c0 73 -27 135 -81 185c-70 63 -134 63 -221 63z" />
    <glyph glyph-name="asterisk" unicode="*" horiz-adv-x="900" 
d="M414 303l-117 101l-117 -101h-88l1 63l112 96l-154 67v73l85 -1l112 -48v3v143v2h47h51v-2v-146l112 48l85 1v-73l-154 -67l112 -96l1 -63h-88z" />
    <glyph glyph-name="plus" unicode="+" horiz-adv-x="900" 
d="M501 299v-191h-102v191h-233v101h233v191l102 1v-192h233v-101h-233z" />
    <glyph glyph-name="comma" unicode="," horiz-adv-x="450" 
d="M100 -196v96c57 2 99 43 99 100h-99v100h197l1 -1c-1 -40 2 -80 -2 -120c-9 -92 -83 -166 -174 -174c-2 0 -3 -1 -5 -1h-17z" />
    <glyph glyph-name="hyphen" unicode="-" horiz-adv-x="900" 
d="M147 299v101h569v-101h-569z" />
    <glyph glyph-name="period" unicode="." horiz-adv-x="450" 
d="M101 0v98h98v-98h-98z" />
    <glyph glyph-name="slash" unicode="/" 
d="M153 0h-103v46l806 654h94v-54z" />
    <glyph glyph-name="zero" unicode="0" 
d="M502 101h185c16 0 32 -1 49 0c66 5 115 56 116 121v255c-1 33 -13 62 -36 85c-26 26 -57 37 -93 36h-443h-18c-62 -6 -110 -57 -110 -119c-1 -86 -1 -173 0 -259c0 -71 59 -119 127 -119h223zM452 399h96v-99h-94c-3 11 -4 79 -2 99zM500 0h-202
c-135 2 -247 103 -247 240c-1 73 -1 146 0 218c0 120 91 223 210 239c12 1 24 1 36 1c135 1 270 0 405 1c140 1 247 -110 247 -247c1 -68 1 -137 1 -206c-1 -143 -113 -246 -253 -246h-197z" />
    <glyph glyph-name="one" unicode="1" 
d="M50 396c27 -3 53 1 79 7c70 17 129 54 176 110l147 174c7 9 10 13 10 13h175h17v-598l296 -1v-100h-900v101c501 -1 0 -1 501 -1v547c-6 -6 -9 -10 -13 -14c-54 -62 -109 -124 -162 -186c-67 -77 -150 -125 -250 -142c-25 -5 -50 -8 -76 -5v95z" />
    <glyph glyph-name="two" unicode="2" horiz-adv-x="1003" 
d="M773 700h2c95 0 178 -109 177 -202c-1 -116 -93 -197 -205 -197h-470c-62 0 -122 -47 -124 -111c-2 -28 -1 -57 -1 -87h799v-103h-900v16v172c1 119 95 213 214 213h483c26 0 50 8 70 25c30 26 41 69 28 107c-15 40 -52 66 -95 66h-504c-51 0 -92 -36 -99 -86v-13h-97v27
c15 104 101 166 172 173h5h545z" />
    <glyph glyph-name="three" unicode="3" 
d="M747 0h-697v100l639 1h66c49 1 82 30 94 75c15 61 -27 121 -90 122c-39 1 -79 1 -118 1h-272h-17v102h22c96 0 182 29 259 87c45 34 91 66 137 99l16 13h-627v100h792l-1 -102c-79 -59 -164 -124 -243 -183l-19 -14h17c22 0 44 1 66 -1c98 -7 175 -92 179 -189
c4 -102 -64 -191 -164 -208c-13 -2 -26 -3 -39 -3z" />
    <glyph glyph-name="four" unicode="4" 
d="M748 0h-101l-1 203h-595v102l340 395h77v-62l-276 -332h454v394h101v-396h204v-100h-203v-204z" />
    <glyph glyph-name="five" unicode="5" 
d="M51 0v101h692c11 0 22 0 33 2c47 11 80 56 77 102c-4 65 -53 94 -112 94h-689l-1 401h801v-101h-489h-209v-197c199 0 397 0 596 -1c71 0 127 -30 167 -88c82 -122 8 -290 -137 -311c-13 -2 -25 -2 -37 -2h-692z" />
    <glyph glyph-name="six" unicode="6" 
d="M500 104h238c45 0 82 14 102 59c16 35 12 69 -11 100c-21 29 -51 41 -86 41c-162 -1 -324 -1 -486 -1h-17c-42 -6 -70 -28 -84 -68c-13 -37 -1 -79 28 -106c21 -18 45 -25 72 -25h244zM856 504h-100c-1 5 -2 10 -3 16c-8 43 -42 75 -86 80h-13c-127 0 -254 1 -381 0
c-43 0 -77 -18 -102 -54c-11 -16 -19 -34 -19 -54c-1 -36 0 -72 0 -110c4 2 7 3 11 4c28 14 58 21 89 21c166 1 331 1 496 0c98 0 177 -67 198 -163c25 -118 -63 -234 -183 -243c-7 0 -14 -1 -21 -1h-483c-112 0 -208 84 -208 199c-1 98 -1 195 0 293c1 117 99 208 214 208
h392c95 0 174 -64 194 -158c3 -12 3 -24 5 -38z" />
    <glyph glyph-name="seven" unicode="7" 
d="M554 240l-1 -240h-101l2 299l-201 1v100l228 1c31 78 78 143 142 197l-573 2v100l900 -1v-99h-19c-138 -3 -262 -71 -330 -193l-2 -6h254v-100c-227 -1 -129 -1 -292 -1c-5 -21 -7 -40 -7 -60z" />
    <glyph glyph-name="eight" unicode="8" 
d="M500 101h237c45 0 82 14 102 59c16 35 12 69 -11 100c-21 29 -51 40 -86 40h-485c-5 0 -11 0 -16 -1c-42 -5 -70 -28 -84 -67c-14 -38 -2 -79 28 -106c20 -18 45 -25 71 -25h244zM500 401h94c22 0 45 -1 67 1c40 2 73 30 85 69s-1 80 -32 106c-20 16 -42 22 -68 22h-293
h-15c-42 -6 -70 -28 -84 -68c-13 -37 -1 -79 28 -106c20 -17 44 -24 70 -24h148zM816 390c5 -2 9 -4 13 -6c81 -35 130 -123 117 -214c-15 -101 -103 -170 -203 -170h-486c-78 0 -138 32 -178 99c-60 100 -20 231 85 282c6 3 12 6 19 9c-2 5 -4 9 -6 13
c-68 121 6 273 142 295c11 2 23 2 34 2c98 0 196 -1 293 0c95 1 173 -64 195 -146c14 -53 8 -102 -17 -150c-3 -4 -5 -9 -8 -14z" />
    <glyph glyph-name="nine" unicode="9" 
d="M502 401h239h21c41 4 75 32 87 72c11 38 -2 80 -34 105c-20 16 -43 21 -69 21h-488h-16c-42 -6 -71 -28 -85 -68c-13 -37 -1 -79 29 -106c20 -18 45 -24 72 -24h244zM52 198h99c1 -4 1 -7 2 -10c6 -55 51 -88 104 -88h471c72 0 120 51 125 120c1 33 0 66 0 99
c0 2 -1 4 -1 7c-4 -2 -8 -3 -11 -4c-29 -15 -60 -22 -92 -22h-496c-101 0 -176 71 -196 153c-28 113 49 228 164 245c10 2 21 2 32 2c165 0 330 -1 495 0c94 1 173 -63 195 -147c5 -18 7 -36 8 -54v-283c-1 -124 -98 -216 -220 -216c-159 0 -317 1 -476 0
c-97 0 -167 61 -192 132c-8 21 -13 42 -11 66z" />
    <glyph glyph-name="colon" unicode=":" horiz-adv-x="300" 
d="M101 0v98h98v-98h-98zM101 602v98h98v-98h-98z" />
    <glyph glyph-name="semicolon" unicode=";" horiz-adv-x="900" 
d="M51 602v98h98v-98h-98zM51 -196v96c56 2 99 44 99 100h-99v100h197l1 -1c-1 -40 2 -80 -2 -120c-9 -92 -83 -166 -174 -174c-2 0 -4 -1 -5 -1h-17z" />
    <glyph glyph-name="less" unicode="&#x3c;" horiz-adv-x="900" 
d="M676 698v-43l-373 -306l373 -310v-39l-95 -1l-357 291v119l353 290h96c1 0 1 0 3 -1z" />
    <glyph glyph-name="equal" unicode="=" 
d="M50 203v102h899l1 -102h-900zM50 398v102h899l1 -102h-900z" />
    <glyph glyph-name="greater" unicode="&#x3e;" horiz-adv-x="900" 
d="M224 698c2 1 2 1 3 1h96l353 -290v-119l-357 -291l-95 1v39l373 310l-372 306z" />
    <glyph glyph-name="question" unicode="?" horiz-adv-x="999" 
d="M196 504h-95c-2 20 2 38 7 55c24 82 100 140 186 140c134 1 268 1 402 0c100 0 186 -81 194 -179c8 -113 -73 -200 -166 -213c-17 -2 -33 -2 -50 -2c-23 -1 -45 -1 -68 0c-64 1 -111 -49 -113 -103c0 -1 0 -3 -1 -5h-98c-2 15 1 29 4 43c21 95 105 163 202 164h94
c48 1 88 36 95 82c8 48 -20 94 -66 109c-10 3 -21 5 -31 5h-397c-52 0 -92 -37 -98 -89c0 -2 0 -3 -1 -7zM493 99v-99h-98v99h98z" />
    <glyph glyph-name="at" unicode="@" horiz-adv-x="1001" 
d="M368 287l229 1v24h-229c-23 0 -24 -24 0 -25zM51 330v40c1 8 2 17 4 25c30 177 207 279 373 300c15 2 29 3 44 5h58c2 0 4 -1 6 -1c23 -3 46 -4 68 -8c148 -27 305 -123 339 -279c4 -14 5 -28 8 -42v-40c-1 -2 -1 -3 -2 -5c-3 -42 -16 -80 -37 -117l-4 -6h-266
c-4 0 -7 0 -11 1c-17 3 -28 15 -34 31v-32h-6h-250c-7 0 -13 1 -20 2c-45 12 -73 53 -67 99c5 44 44 77 89 77c81 1 163 0 244 0h9c3 23 -10 39 -32 39h-247h-9v85h2c86 0 171 1 257 0c60 -1 114 -50 120 -111c3 -30 1 -61 1 -91v-19h7h133c7 0 10 2 12 8
c19 59 11 115 -21 167c-64 103 -200 151 -316 151c-146 0 -348 -83 -351 -250c-2 -49 15 -93 44 -131c69 -89 191 -130 301 -130c73 0 147 15 212 50c2 1 6 2 9 2h132v-22c-77 -69 -175 -110 -276 -123c-15 -2 -30 -3 -44 -5h-58c-2 0 -5 1 -7 1c-22 3 -45 4 -67 8
c-92 17 -174 53 -243 117c-64 60 -92 120 -104 204z" />
    <glyph glyph-name="A" unicode="A" horiz-adv-x="1001" 
d="M251 98h458v202h-459c-55 -1 -100 -46 -100 -101c0 -56 45 -101 101 -101zM810 101h141v-101h-153c-12 4 -24 6 -35 12c-30 16 -47 41 -54 74v-86h-473c-6 1 -11 2 -16 3c-108 17 -183 120 -167 228c14 100 99 174 201 174h455v68c0 71 -53 125 -125 125h-435v102h464
c4 -1 9 -1 13 -2c108 -16 184 -105 184 -214v-383z" />
    <glyph glyph-name="B" unicode="B" horiz-adv-x="1001" 
d="M152 300v-203h599c7 0 15 1 22 3c49 11 83 58 78 108c-6 53 -48 92 -101 92h-598zM50 699h101v-299h596c98 0 178 -65 199 -161c23 -109 -53 -220 -162 -237c-13 -2 -25 -3 -38 -3h-696v700z" />
    <glyph glyph-name="C" unicode="C" horiz-adv-x="1001" 
d="M248 0c-18 4 -37 6 -55 13c-91 35 -142 111 -142 207c0 77 -1 154 0 231c1 101 47 175 134 222c33 18 69 27 107 27h416c119 -1 221 -91 238 -209c1 -8 3 -17 3 -25v-65h-103v9c0 28 1 56 -2 84c-5 60 -58 106 -118 106h-109h-342c-64 0 -113 -41 -124 -104
c-2 -13 -1 -27 -2 -40c0 -77 -1 -154 -1 -231c0 -70 54 -124 123 -124h474c56 0 98 41 101 97c0 0 0 1 1 2h103c-2 -15 -3 -30 -6 -44c-19 -83 -89 -145 -173 -155c-2 0 -3 -1 -5 -1h-518z" />
    <glyph glyph-name="D" unicode="D" horiz-adv-x="1002" 
d="M850 97v203h-600c-7 0 -14 -1 -22 -2c-50 -12 -85 -59 -79 -109c6 -53 49 -92 101 -92h600zM952 -1h-717c-20 5 -41 8 -59 15c-83 32 -134 118 -124 206c11 104 96 180 199 180h599v299h102v-700z" />
    <glyph glyph-name="E" unicode="E" horiz-adv-x="1001" 
d="M152 399h698v79c0 69 -55 123 -124 123h-451c-69 0 -123 -54 -123 -124v-78zM951 0h-703c-17 4 -36 6 -53 13c-93 35 -144 109 -144 207c0 77 -1 155 0 232c1 100 47 174 135 221c33 18 68 26 105 27h418c119 -1 222 -91 239 -209l3 -18v-177c-26 0 -52 1 -78 1
c-135 1 -268 2 -403 2c-91 0 -183 -1 -273 -2c-15 -1 -30 0 -45 0v-73c0 -72 54 -126 125 -126h674v-98z" />
    <glyph glyph-name="F" unicode="F" horiz-adv-x="999" 
d="M434 700h324c14 -3 29 -5 43 -9c83 -24 146 -105 148 -191v-2v2h-103c0 54 -54 99 -106 99h-283c-66 0 -121 -55 -121 -121v-87h613v-101h-613v-290h-99v290h-187v101h187v12c0 35 -3 71 1 106c11 87 59 147 142 179c17 6 36 8 54 12z" />
    <glyph glyph-name="G" unicode="G" horiz-adv-x="1004" 
d="M852 402v200h-598c-58 0 -102 -44 -102 -100s44 -100 102 -100h598zM852 295h-592c-105 0 -191 72 -207 174c-16 107 61 211 170 228c12 2 25 3 37 3h694v-487c0 -118 -98 -213 -215 -213h-687v100h673c54 0 94 25 117 75c5 12 9 25 9 38c2 27 1 54 1 82z" />
    <glyph glyph-name="H" unicode="H" 
d="M850 0v170c0 71 -54 125 -125 125h-564h-10v-295h-101v700h101v-300h10h573c108 0 197 -77 213 -184c3 -20 2 -40 2 -61c1 -20 0 -40 1 -61v-5v-89h-100z" />
    <glyph glyph-name="I" unicode="I" 
d="M50 101h400v500h-299v99h401v-599h398v-101h-900v101zM551 892v-97h-101v97h101z" />
    <glyph glyph-name="J" unicode="J" horiz-adv-x="1001" 
d="M50 2v99h9h467c72 0 126 55 126 127v364v9h-602v99h900v-98h-198v-10v-371c0 -121 -94 -216 -213 -216c-111 -2 -223 -3 -334 -3h-155zM754 893v-96h-102v96h102z" />
    <glyph glyph-name="K" unicode="K" 
d="M155 700v-303h8h83c4 0 9 1 13 3c129 77 257 154 385 231c107 64 182 67 304 67h2v-99h-8c-27 0 -55 1 -82 -1c-49 -3 -95 -17 -138 -42l-363 -207c0 -1 -1 -1 -3 -3c5 -3 9 -5 14 -8c112 -63 225 -127 337 -189c84 -47 148 -53 243 -53v-96h-11c-32 1 -65 0 -97 2
c-67 4 -130 25 -187 59c-132 79 -265 157 -397 235c-2 2 -6 3 -9 3h-91h-3v-299h-105v700h105z" />
    <glyph glyph-name="L" unicode="L" horiz-adv-x="1001" 
d="M451 700v-501c0 -56 39 -95 95 -95h395h9v-104h-8h-439c-85 0 -153 68 -153 152v439v10h-300v99h401z" />
    <glyph glyph-name="M" unicode="M" horiz-adv-x="1001" 
d="M452 0c-5 4 -4 10 -4 15v460c0 66 -51 124 -118 124c-59 1 -117 1 -175 1c-1 0 -2 -1 -4 -1v-596h-101v697h9h276c70 -1 127 -29 171 -84c1 -2 2 -3 3 -4c11 9 21 20 32 29c47 40 104 58 159 58c113 0 223 -76 246 -201c1 -10 2 -18 4 -28v-470h-99v448c0 9 0 16 -2 24
c-8 74 -76 131 -148 131c-85 0 -151 -69 -151 -153v-450h-98z" />
    <glyph glyph-name="N" unicode="N" 
d="M50 700h703c18 -1 37 -6 54 -12c91 -35 143 -110 143 -207v-470v-11h-101v11v464c-1 61 -41 110 -100 122c-7 1 -14 2 -21 2h-567h-7v-599h-104v700z" />
    <glyph glyph-name="O" unicode="O" horiz-adv-x="1001" 
d="M275 97h455c67 1 121 55 121 122v261c0 53 -54 122 -121 122h-457c-68 0 -122 -69 -122 -123v-258c0 -69 54 -124 124 -124zM705 -1h-409c-135 0 -246 109 -246 244v212c0 135 111 245 245 245h409c136 0 245 -110 245 -245c1 -70 1 -141 1 -211
c-1 -135 -110 -245 -245 -245z" />
    <glyph glyph-name="P" unicode="P" 
d="M151 602v-203h601c7 0 14 1 20 2c51 12 86 59 80 109c-6 53 -49 92 -102 92h-599zM748 299h-597v-299h-101v700h701c102 0 187 -78 198 -179c12 -108 -64 -205 -171 -220c-10 -1 -20 -2 -30 -2z" />
    <glyph glyph-name="Q" unicode="Q" horiz-adv-x="1001" 
d="M646 400v196h-403c-7 0 -14 -1 -20 -3c-48 -11 -82 -56 -77 -104c6 -52 48 -89 99 -89h401zM950 0h-304v300h-393c-102 0 -185 72 -200 172c-16 106 59 208 166 225c12 2 24 3 35 3h491v-599h205v-101z" />
    <glyph glyph-name="R" unicode="R" horiz-adv-x="1001" 
d="M255 596h-205v103h302v-263c21 14 41 27 61 39c83 54 165 108 248 161c100 63 174 64 289 64v-101h-24c-86 0 -164 -25 -236 -73c-110 -74 -220 -148 -331 -222c-5 -3 -7 -6 -7 -12v-283v-9h-97v596z" />
    <glyph glyph-name="S" unicode="S" horiz-adv-x="1002" 
d="M403 700c147 0 295 -1 443 -2h7v-100h-9h-590c-57 0 -101 -44 -100 -100c0 -53 44 -97 99 -97h315h179c102 0 186 -70 202 -171c17 -106 -60 -210 -165 -227c-13 -2 -25 -3 -37 -3h-685h-10v102h10h692c56 0 100 45 100 101c0 54 -45 97 -99 97c-167 1 -334 0 -501 0
c-98 0 -178 65 -199 161c-23 109 54 220 165 236c7 1 13 2 20 3h163z" />
    <glyph glyph-name="T" unicode="T" 
d="M438 700v-191v-10h511v-100h-511v-9c0 -53 0 -112 1 -165c0 -70 53 -124 124 -124h378h9v-101h-9h-390c-121 0 -214 97 -214 216v173v9h-144h-143v101h287v201h101z" />
    <glyph glyph-name="U" unicode="U" 
d="M154 700v-474c0 -59 36 -106 92 -121c10 -2 20 -4 30 -4h565h7v599h102v-700h-8h-676c-110 0 -204 84 -215 192c0 8 -1 17 -1 25v483h104z" />
    <glyph glyph-name="V" unicode="V" 
d="M50 700h17h85c0 0 94 -189 140 -280c52 -104 109 -216 161 -321h94c99 198 202 403 301 601h102v-47c0 0 -170 -338 -251 -498c-26 -52 -79 -155 -79 -155h-241c-56 112 -116 231 -172 342c-52 104 -105 208 -157 312v46z" />
    <glyph glyph-name="W" unicode="W" horiz-adv-x="1001" 
d="M50 699c2 0 5 1 7 1h85l108 -659l179 522h142l174 -520l113 657h92v-36l-104 -664h-187l-158 466l-160 -466h-187l-104 665v34z" />
    <glyph glyph-name="X" unicode="X" 
d="M950 700v-51s-5 -4 -369 -299c0 -1 369 -301 369 -301v-49h-42h-55l-352 285l-353 -285h-88h-10v48l371 302l-371 302v48h9h89l353 -286l353 286h96z" />
    <glyph glyph-name="Y" unicode="Y" 
d="M50 700h101v-9v-168c0 -69 53 -124 123 -124h567h7v301h102v-8v-478c-1 -110 -85 -202 -193 -213c-8 0 -16 -1 -24 -1h-672h-11v98h10h663c73 0 125 54 125 126v76h-9h-573c-115 0 -216 93 -216 210v185v5z" />
    <glyph glyph-name="Z" unicode="Z" 
d="M950 700v-97c-152 -105 -310 -215 -462 -320c-84 -58 -168 -116 -251 -174c-2 -1 -4 -3 -8 -6h721v-103h-900v7v95c94 65 192 133 286 198c91 63 182 127 274 190c52 36 104 73 157 109c1 1 2 1 4 3h-721v98h900z" />
    <glyph glyph-name="underscore" unicode="_" 
d="M50 0v102h899l1 -102h-900z" />
    <glyph glyph-name="a" unicode="a" horiz-adv-x="1001" 
d="M251 98h458v202h-459c-55 -1 -100 -46 -100 -101c0 -56 45 -101 101 -101zM810 101h141v-101h-153c-12 4 -24 6 -35 12c-30 16 -47 41 -54 74v-86h-473c-6 1 -11 2 -16 3c-108 17 -183 120 -167 228c14 100 99 174 201 174h455v68c0 71 -53 125 -125 125h-435v102h464
c4 -1 9 -1 13 -2c108 -16 184 -105 184 -214v-383z" />
    <glyph glyph-name="b" unicode="b" horiz-adv-x="1001" 
d="M152 300v-203h599c7 0 15 1 22 3c49 11 83 58 78 108c-6 53 -48 92 -101 92h-598zM50 699h101v-299h596c98 0 178 -65 199 -161c23 -109 -53 -220 -162 -237c-13 -2 -25 -3 -38 -3h-696v700z" />
    <glyph glyph-name="c" unicode="c" horiz-adv-x="1001" 
d="M248 0c-18 4 -37 6 -55 13c-91 35 -142 111 -142 207c0 77 -1 154 0 231c1 101 47 175 134 222c33 18 69 27 107 27h416c119 -1 221 -91 238 -209c1 -8 3 -17 3 -25v-65h-103v9c0 28 1 56 -2 84c-5 60 -58 106 -118 106h-109h-342c-64 0 -113 -41 -124 -104
c-2 -13 -1 -27 -2 -40c0 -77 -1 -154 -1 -231c0 -70 54 -124 123 -124h474c56 0 98 41 101 97c0 0 0 1 1 2h103c-2 -15 -3 -30 -6 -44c-19 -83 -89 -145 -173 -155c-2 0 -3 -1 -5 -1h-518z" />
    <glyph glyph-name="d" unicode="d" horiz-adv-x="1002" 
d="M850 97v203h-600c-7 0 -14 -1 -22 -2c-50 -12 -85 -59 -79 -109c6 -53 49 -92 101 -92h600zM952 -1h-717c-20 5 -41 8 -59 15c-83 32 -134 118 -124 206c11 104 96 180 199 180h599v299h102v-700z" />
    <glyph glyph-name="e" unicode="e" horiz-adv-x="1001" 
d="M152 399h698v79c0 69 -55 123 -124 123h-451c-69 0 -123 -54 -123 -124v-78zM951 0h-703c-17 4 -36 6 -53 13c-93 35 -144 109 -144 207c0 77 -1 155 0 232c1 100 47 174 135 221c33 18 68 26 105 27h418c119 -1 222 -91 239 -209l3 -18v-177c-26 0 -52 1 -78 1
c-135 1 -268 2 -403 2c-91 0 -183 -1 -273 -2c-15 -1 -30 0 -45 0v-73c0 -72 54 -126 125 -126h674v-98z" />
    <glyph glyph-name="f" unicode="f" horiz-adv-x="999" 
d="M434 700h324c14 -3 29 -5 43 -9c83 -24 146 -105 148 -191v-2v2h-103c0 54 -54 99 -106 99h-283c-66 0 -121 -55 -121 -121v-87h613v-101h-613v-290h-99v290h-187v101h187v12c0 35 -3 71 1 106c11 87 59 147 142 179c17 6 36 8 54 12z" />
    <glyph glyph-name="g" unicode="g" horiz-adv-x="1004" 
d="M852 402v200h-598c-58 0 -102 -44 -102 -100s44 -100 102 -100h598zM852 295h-592c-105 0 -191 72 -207 174c-16 107 61 211 170 228c12 2 25 3 37 3h694v-487c0 -118 -98 -213 -215 -213h-687v100h673c54 0 94 25 117 75c5 12 9 25 9 38c2 27 1 54 1 82z" />
    <glyph glyph-name="h" unicode="h" 
d="M850 0v170c0 71 -54 125 -125 125h-564h-10v-295h-101v700h101v-300h10h573c108 0 197 -77 213 -184c3 -20 2 -40 2 -61c1 -20 0 -40 1 -61v-5v-89h-100z" />
    <glyph glyph-name="i" unicode="i" 
d="M50 101h400v500h-299v99h401v-599h398v-101h-900v101zM551 892v-97h-101v97h101z" />
    <glyph glyph-name="j" unicode="j" horiz-adv-x="1001" 
d="M50 2v99h9h467c72 0 126 55 126 127v364v9h-602v99h900v-98h-198v-10v-371c0 -121 -94 -216 -213 -216c-111 -2 -223 -3 -334 -3h-155zM754 893v-96h-102v96h102z" />
    <glyph glyph-name="k" unicode="k" 
d="M155 700v-303h8h83c4 0 9 1 13 3c129 77 257 154 385 231c107 64 182 67 304 67h2v-99h-8c-27 0 -55 1 -82 -1c-49 -3 -95 -17 -138 -42l-363 -207c0 -1 -1 -1 -3 -3c5 -3 9 -5 14 -8c112 -63 225 -127 337 -189c84 -47 148 -53 243 -53v-96h-11c-32 1 -65 0 -97 2
c-67 4 -130 25 -187 59c-132 79 -265 157 -397 235c-2 2 -6 3 -9 3h-91h-3v-299h-105v700h105z" />
    <glyph glyph-name="l" unicode="l" horiz-adv-x="1001" 
d="M451 700v-501c0 -56 39 -95 95 -95h395h9v-104h-8h-439c-85 0 -153 68 -153 152v439v10h-300v99h401z" />
    <glyph glyph-name="m" unicode="m" horiz-adv-x="1001" 
d="M452 0c-5 4 -4 10 -4 15v460c0 66 -51 124 -118 124c-59 1 -117 1 -175 1c-1 0 -2 -1 -4 -1v-596h-101v697h9h276c70 -1 127 -29 171 -84c1 -2 2 -3 3 -4c11 9 21 20 32 29c47 40 104 58 159 58c113 0 223 -76 246 -201c1 -10 2 -18 4 -28v-470h-99v448c0 9 0 16 -2 24
c-8 74 -76 131 -148 131c-85 0 -151 -69 -151 -153v-450h-98z" />
    <glyph glyph-name="n" unicode="n" 
d="M50 700h703c18 -1 37 -6 54 -12c91 -35 143 -110 143 -207v-470v-11h-101v11v464c-1 61 -41 110 -100 122c-7 1 -14 2 -21 2h-567h-7v-599h-104v700z" />
    <glyph glyph-name="o" unicode="o" horiz-adv-x="1001" 
d="M275 97h455c67 1 121 55 121 122v261c0 53 -54 122 -121 122h-457c-68 0 -122 -69 -122 -123v-258c0 -69 54 -124 124 -124zM705 -1h-409c-135 0 -246 109 -246 244v212c0 135 111 245 245 245h409c136 0 245 -110 245 -245c1 -70 1 -141 1 -211
c-1 -135 -110 -245 -245 -245z" />
    <glyph glyph-name="p" unicode="p" 
d="M151 602v-203h601c7 0 14 1 20 2c51 12 86 59 80 109c-6 53 -49 92 -102 92h-599zM748 299h-597v-299h-101v700h701c102 0 187 -78 198 -179c12 -108 -64 -205 -171 -220c-10 -1 -20 -2 -30 -2z" />
    <glyph glyph-name="q" unicode="q" horiz-adv-x="1001" 
d="M646 400v196h-403c-7 0 -14 -1 -20 -3c-48 -11 -82 -56 -77 -104c6 -52 48 -89 99 -89h401zM950 0h-304v300h-393c-102 0 -185 72 -200 172c-16 106 59 208 166 225c12 2 24 3 35 3h491v-599h205v-101z" />
    <glyph glyph-name="r" unicode="r" horiz-adv-x="1001" 
d="M255 596h-205v103h302v-263c21 14 41 27 61 39c83 54 165 108 248 161c100 63 174 64 289 64v-101h-24c-86 0 -164 -25 -236 -73c-110 -74 -220 -148 -331 -222c-5 -3 -7 -6 -7 -12v-283v-9h-97v596z" />
    <glyph glyph-name="s" unicode="s" horiz-adv-x="1002" 
d="M403 700c147 0 295 -1 443 -2h7v-100h-9h-590c-57 0 -101 -44 -100 -100c0 -53 44 -97 99 -97h315h179c102 0 186 -70 202 -171c17 -106 -60 -210 -165 -227c-13 -2 -25 -3 -37 -3h-685h-10v102h10h692c56 0 100 45 100 101c0 54 -45 97 -99 97c-167 1 -334 0 -501 0
c-98 0 -178 65 -199 161c-23 109 54 220 165 236c7 1 13 2 20 3h163z" />
    <glyph glyph-name="t" unicode="t" 
d="M438 700v-191v-10h511v-100h-511v-9c0 -53 0 -112 1 -165c0 -70 53 -124 124 -124h378h9v-101h-9h-390c-121 0 -214 97 -214 216v173v9h-144h-143v101h287v201h101z" />
    <glyph glyph-name="u" unicode="u" 
d="M154 700v-474c0 -59 36 -106 92 -121c10 -2 20 -4 30 -4h565h7v599h102v-700h-8h-676c-110 0 -204 84 -215 192c0 8 -1 17 -1 25v483h104z" />
    <glyph glyph-name="v" unicode="v" 
d="M50 700h17h85c0 0 94 -189 140 -280c52 -104 109 -216 161 -321h94c99 198 202 403 301 601h102v-47c0 0 -170 -338 -251 -498c-26 -52 -79 -155 -79 -155h-241c-56 112 -116 231 -172 342c-52 104 -105 208 -157 312v46z" />
    <glyph glyph-name="w" unicode="w" horiz-adv-x="1001" 
d="M50 699c2 0 5 1 7 1h85l108 -659l179 522h142l174 -520l113 657h92v-36l-104 -664h-187l-158 466l-160 -466h-187l-104 665v34z" />
    <glyph glyph-name="x" unicode="x" 
d="M950 700v-51s-5 -4 -369 -299c0 -1 369 -301 369 -301v-49h-42h-55l-352 285l-353 -285h-88h-10v48l371 302l-371 302v48h9h89l353 -286l353 286h96z" />
    <glyph glyph-name="y" unicode="y" 
d="M50 700h101v-9v-168c0 -69 53 -124 123 -124h567h7v301h102v-8v-478c-1 -110 -85 -202 -193 -213c-8 0 -16 -1 -24 -1h-672h-11v98h10h663c73 0 125 54 125 126v76h-9h-573c-115 0 -216 93 -216 210v185v5z" />
    <glyph glyph-name="z" unicode="z" 
d="M950 700v-97c-152 -105 -310 -215 -462 -320c-84 -58 -168 -116 -251 -174c-2 -1 -4 -3 -8 -6h721v-103h-900v7v95c94 65 192 133 286 198c91 63 182 127 274 190c52 36 104 73 157 109c1 1 2 1 4 3h-721v98h900z" />
    <glyph glyph-name="guillemotleft" unicode="&#xab;" horiz-adv-x="900" 
d="M450 0h-94c-3 21 -5 41 -9 60c-18 75 -62 131 -129 169l-125 73v91s85 49 124 72c85 52 137 134 137 235h95c-1 -17 -2 -34 -4 -51c-18 -122 -82 -204 -181 -271c-15 -9 -29 -20 -45 -30c10 -7 19 -13 28 -20c26 -19 54 -36 79 -58c65 -57 104 -129 118 -214
c3 -18 4 -37 6 -56zM806 0h-94c-3 21 -4 41 -9 60c-18 75 -62 131 -128 169l-125 73v91s84 49 123 72c84 51 138 135 138 235h95c-2 -17 -2 -34 -5 -51c-17 -122 -82 -204 -180 -271c-15 -9 -30 -20 -45 -30c10 -7 19 -13 28 -20c26 -19 54 -36 79 -58
c65 -57 104 -129 118 -214c2 -18 3 -37 5 -56z" />
    <glyph glyph-name="guillemotright" unicode="&#xbb;" horiz-adv-x="900" 
d="M93 0c2 19 3 38 6 56c14 85 53 157 118 214c25 22 53 39 79 58c9 7 18 13 28 20c-16 10 -30 21 -45 30c-120 81 -176 174 -185 322h95c0 -101 52 -183 137 -235c39 -23 124 -72 124 -72v-91l-125 -73c-67 -38 -111 -94 -129 -169c-4 -19 -6 -39 -9 -60h-94zM450 0
c2 19 3 38 6 56c13 85 52 157 118 214c24 22 52 39 79 58c9 7 18 13 27 20c-117 78 -204 150 -225 301c-3 17 -3 34 -5 51h95c0 -1 1 -2 1 -4c4 -101 50 -178 137 -231c39 -23 123 -72 123 -72v-91l-124 -73c-67 -38 -111 -94 -129 -169c-5 -19 -6 -39 -9 -60h-94z" />
    <glyph glyph-name="multiply" unicode="&#xd7;" horiz-adv-x="900" 
d="M701 194v-47h-100l-150 130l-150 -129l-102 -1v47l174 152l-174 151v47l102 -1l150 -129l150 130h100v-47l-172 -151h-156h156z" />
    <glyph glyph-name="divide" unicode="&#xf7;" horiz-adv-x="900" 
d="M394 98v101h112v-101h-112zM734 299h-568v101h568v-101zM506 500h-112v102h112v-102z" />
    <glyph glyph-name="uni0401" unicode="&#x401;" horiz-adv-x="900" 
d="M101 399h698v79c0 69 -55 123 -124 123h-451c-69 0 -123 -54 -123 -124v-78zM900 0h-703c-17 4 -36 6 -53 13c-93 35 -144 109 -144 207c0 77 -1 155 0 232c1 100 47 174 135 221c33 18 68 26 105 27h418c119 -1 222 -91 239 -209l3 -18v-177c-26 0 -52 1 -78 1
c-135 1 -268 2 -403 2c-91 0 -183 -1 -273 -2c-15 -1 -30 0 -45 0v-73c0 -72 54 -126 125 -126h674v-98zM305 802h-100l-1 99h100zM702 901l1 -99h-102v99h101z" />
    <glyph glyph-name="uni0404" unicode="&#x404;" horiz-adv-x="900" 
d="M805 202h96c-5 -15 -8 -28 -13 -41c-39 -96 -122 -161 -227 -161l-413 -2c-135 -1 -247 109 -247 244c0 69 -1 139 -1 209c-1 134 109 247 243 247c137 1 275 2 412 3c116 1 219 -84 243 -198v-3h-93c-6 13 -10 27 -17 38c-24 40 -61 65 -108 65c-152 -1 -304 -2 -457 -3
c-69 -1 -123 -56 -122 -125v-73v-8c203 2 405 4 608 5v-96c-202 -2 -404 -3 -607 -5c0 -15 0 -28 1 -42c0 -21 -1 -43 3 -63c12 -58 62 -97 121 -97c152 1 304 3 456 4c59 0 107 40 120 97c0 2 1 3 2 5z" />
    <glyph glyph-name="uni0405" unicode="&#x405;" horiz-adv-x="900" 
d="M352 700c147 0 295 -1 443 -2h7v-100h-9h-590c-57 0 -101 -44 -100 -100c0 -53 44 -97 99 -97h315h179c102 0 186 -70 202 -171c17 -106 -60 -210 -165 -227c-13 -2 -25 -3 -37 -3h-685h-10v102h10h692c56 0 100 45 100 101c0 54 -45 97 -99 97c-167 1 -334 0 -501 0
c-98 0 -178 65 -199 161c-23 109 54 220 165 236c7 1 13 2 20 3h163z" />
    <glyph glyph-name="uni0406" unicode="&#x406;" horiz-adv-x="900" 
d="M0 101h400v500h-299v99h401v-599h398v-101h-900v101zM501 892v-97h-101v97h101z" />
    <glyph glyph-name="uni0407" unicode="&#x407;" horiz-adv-x="900" 
d="M0 101h400v500h-299v99h401v-599h398v-101h-900v101zM501 892v-97h-101v97h101zM198 795v98h101v-98h-101z" />
    <glyph glyph-name="uni0408" unicode="&#x408;" horiz-adv-x="900" 
d="M0 2v99h9h467c72 0 126 55 126 127v364v9h-602v99h900v-98h-198v-10v-371c0 -121 -94 -216 -213 -216c-111 -2 -223 -3 -334 -3h-155zM704 893v-96h-102v96h102z" />
    <glyph glyph-name="uni0410" unicode="&#x410;" 
d="M251 98h458v202h-459c-55 -1 -100 -46 -100 -101c0 -56 45 -101 101 -101zM810 101h141v-101h-153c-12 4 -24 6 -35 12c-30 16 -47 41 -54 74v-86h-473c-6 1 -11 2 -16 3c-108 17 -183 120 -167 228c14 100 99 174 201 174h455v68c0 71 -53 125 -125 125h-435v102h464
c4 -1 9 -1 13 -2c108 -16 184 -105 184 -214v-383z" />
    <glyph glyph-name="uni0411" unicode="&#x411;" horiz-adv-x="1002" 
d="M487 300h-265c-34 0 -64 -25 -70 -58c-12 -71 45 -141 118 -141h484c28 0 53 11 71 33c28 33 34 70 16 109c-18 37 -49 56 -91 57h-263zM750 700h101c-1 -111 -90 -199 -200 -199h-378c-70 0 -122 -55 -122 -124c15 5 29 12 44 16c17 4 35 7 52 7c169 1 338 1 507 0
c100 0 186 -78 196 -178c11 -109 -62 -203 -170 -220c-9 -1 -18 -2 -27 -2h-491c-108 0 -200 84 -211 191c0 2 -1 4 -1 6v210c1 4 1 8 2 12c15 106 105 185 212 185h388c55 0 97 41 98 96z" />
    <glyph glyph-name="uni0412" unicode="&#x412;" horiz-adv-x="998" 
d="M148 297v-195h16h577c8 0 16 0 24 1c51 8 89 59 81 110s-47 85 -99 85h-587c-4 0 -8 -1 -12 -1zM151 598v-196h492c4 0 7 -1 11 0c57 3 100 56 91 112c-8 51 -48 85 -100 85h-481c-4 0 -9 0 -13 -1zM50 0v700c198 0 396 0 593 -1c71 0 128 -30 167 -89
c42 -64 45 -132 12 -201c-2 -3 -4 -6 -5 -9c-2 -3 -3 -5 -5 -9c4 -2 8 -4 13 -6c75 -35 117 -94 122 -176c6 -95 -63 -184 -157 -203c-17 -3 -35 -5 -52 -5h-668c-7 0 -13 -1 -20 -1z" />
    <glyph glyph-name="uni0413" unicode="&#x413;" 
d="M949 700v-298h-97v64v66v67h-701v-132v-66v-68v-66v-67v-66v-67v-67h-101v700h899z" />
    <glyph glyph-name="uni0414" unicode="&#x414;" horiz-adv-x="1002" 
d="M755 596h-301v-16c0 -27 1 -53 0 -80c-5 -126 -44 -209 -135 -300h437c3 22 2 385 -1 396zM353 700h502v-501h96v-199h-96v100h-700v-100h-104v199h13c160 -1 290 140 290 297c-1 62 -1 125 -1 187v17z" />
    <glyph glyph-name="uni0415" unicode="&#x415;" 
d="M152 399h698v79c0 69 -55 123 -124 123h-451c-69 0 -123 -54 -123 -124v-78zM951 0h-703c-17 4 -36 6 -53 13c-93 35 -144 109 -144 207c0 77 -1 155 0 232c1 100 47 174 135 221c33 18 68 26 105 27h418c119 -1 222 -91 239 -209l3 -18v-177c-26 0 -52 1 -78 1
c-135 1 -268 2 -403 2c-91 0 -183 -1 -273 -2c-15 -1 -30 0 -45 0v-73c0 -72 54 -126 125 -126h674v-98z" />
    <glyph glyph-name="uni0416" unicode="&#x416;" horiz-adv-x="1001" 
d="M51 546v98c22 1 44 1 65 -2c95 -14 171 -59 229 -137c23 -31 47 -61 68 -92c5 -7 11 -15 11 -15h28v302h97v-302h26c0 -1 5 6 8 9c26 35 52 69 78 104c48 64 111 105 189 124c33 8 67 10 100 9l1 -98c-77 0 -148 -7 -200 -71c-33 -41 -63 -84 -94 -126c2 -5 4 -9 6 -13
c29 -50 58 -103 87 -153c34 -57 84 -87 150 -88l51 -1v-94c-122 0 -210 35 -278 141c-29 46 -58 92 -85 138c-4 8 -11 19 -11 19h-28c0 -97 1 -201 1 -298h-97v297h-29s-1 -2 -5 -9c-30 -50 -60 -100 -92 -149c-58 -91 -145 -139 -249 -139h-27v94c19 0 37 1 55 1
c51 0 112 30 137 76c34 57 68 118 102 176c-3 4 -5 7 -7 10c-24 34 -48 68 -73 101c-43 58 -101 87 -173 88h-41z" />
    <glyph glyph-name="uni0417" unicode="&#x417;" horiz-adv-x="1001" 
d="M884 352c5 -5 9 -9 12 -13c52 -60 68 -130 42 -204c-30 -85 -104 -135 -193 -135h-678h-16v103c5 0 11 1 17 1h674c12 0 23 0 34 3c43 10 74 54 73 98c-1 45 -33 85 -77 94c-5 2 -11 1 -16 1l-360 1l-2 102l358 1c46 0 86 31 95 76c12 63 -34 118 -100 118
c-231 1 -465 1 -696 1v101c218 0 477 1 696 1c98 0 179 -65 198 -161c14 -66 -4 -125 -49 -176z" />
    <glyph glyph-name="uni0418" unicode="&#x418;" 
d="M143 0h-93v700h96v-567l709 567h95v-700h-96v569z" />
    <glyph glyph-name="uni0419" unicode="&#x419;" horiz-adv-x="1001" 
d="M676 1006c17 -29 33 -58 50 -88c-125 -72 -250 -145 -377 -218c-17 30 -34 58 -51 88c6 3 11 6 17 9c115 67 230 133 345 200c4 2 9 6 13 9h3zM143 1l-93 1v699h97v-567l709 567h94v-699l-96 -1l1 569z" />
    <glyph glyph-name="uni041A" unicode="&#x41a;" 
d="M152 299v-299h-102v700h50h52v-301c6 -1 10 -1 14 -1h85c11 -1 19 2 27 7c116 74 232 147 347 220c78 50 163 76 256 75h69v-99h-17c-22 -1 -45 0 -68 -1c-55 -2 -106 -17 -153 -46c-109 -66 -218 -134 -327 -202c-2 -1 -4 -3 -7 -5c5 -3 9 -6 13 -8
c99 -61 198 -121 296 -181c66 -41 138 -61 215 -62c15 -1 33 0 48 0v-96h-115c-63 5 -139 29 -193 63c-120 75 -239 151 -359 227c-11 7 -23 10 -36 10c-28 -1 -56 0 -84 0c-3 0 -6 -1 -11 -1z" />
    <glyph glyph-name="uni041B" unicode="&#x41b;" horiz-adv-x="1001" 
d="M950 1h-95v299v299h-406v-19c0 -93 -1 -186 0 -279c1 -165 -128 -293 -289 -301c-34 -1 -68 0 -102 0h-8v99h17c29 0 59 0 88 1c111 2 190 94 190 201v372v27h605v-699z" />
    <glyph glyph-name="uni041C" unicode="&#x41c;" 
d="M949 0h-92l-108 659l-178 -522h-142l-174 520l-112 -657h-93v36l105 664h186l158 -466l159 466h187l104 -665v-35z" />
    <glyph glyph-name="uni041D" unicode="&#x41d;" 
d="M50 700h98v-294h702v293h99v-698h-98v303h-702v-304h-99v700z" />
    <glyph glyph-name="uni041E" unicode="&#x41e;" 
d="M275 97h455c67 1 121 55 121 122v261c0 53 -54 122 -121 122h-457c-68 0 -122 -69 -122 -123v-258c0 -69 54 -124 124 -124zM705 -1h-409c-135 0 -246 109 -246 244v212c0 135 111 245 245 245h409c136 0 245 -110 245 -245c1 -70 1 -141 1 -211
c-1 -135 -110 -245 -245 -245z" />
    <glyph glyph-name="uni041F" unicode="&#x41f;" 
d="M849 0v599h-698v-599h-101v700h900v-700h-101z" />
    <glyph glyph-name="uni0420" unicode="&#x420;" 
d="M151 602v-203h601c7 0 14 1 20 2c51 12 86 59 80 109c-6 53 -49 92 -102 92h-599zM748 299h-597v-299h-101v700h701c102 0 187 -78 198 -179c12 -108 -64 -205 -171 -220c-10 -1 -20 -2 -30 -2z" />
    <glyph glyph-name="uni0421" unicode="&#x421;" horiz-adv-x="1001" 
d="M248 0c-18 4 -37 6 -55 13c-91 35 -142 111 -142 207c0 77 -1 154 0 231c1 101 47 175 134 222c33 18 69 27 107 27h416c119 -1 221 -91 238 -209c1 -8 3 -17 3 -25v-65h-103v9c0 28 1 56 -2 84c-5 60 -58 106 -118 106h-109h-342c-64 0 -113 -41 -124 -104
c-2 -13 -1 -27 -2 -40c0 -77 -1 -154 -1 -231c0 -70 54 -124 123 -124h474c56 0 98 41 101 97c0 0 0 1 1 2h103c-2 -15 -3 -30 -6 -44c-19 -83 -89 -145 -173 -155c-2 0 -3 -1 -5 -1h-518z" />
    <glyph glyph-name="uni0422" unicode="&#x422;" horiz-adv-x="1001" 
d="M950 700v-101h-398v-599h-99v599h-403v101h900z" />
    <glyph glyph-name="uni0423" unicode="&#x423;" 
d="M50 700h101v-9v-168c0 -69 53 -124 123 -124h567h7v301h102v-8v-478c-1 -110 -85 -202 -193 -213c-8 0 -16 -1 -24 -1h-672h-11v98h10h663c73 0 125 54 125 126v76h-9h-573c-115 0 -216 93 -216 210v185v5z" />
    <glyph glyph-name="uni0424" unicode="&#x424;" 
d="M454 98v503c-2 1 -3 1 -4 1h-180c-65 -1 -119 -56 -119 -122v-259c0 -68 55 -123 123 -123h172h8zM553 602v-503c1 -1 2 -1 3 -1h178c64 1 118 56 118 121v262c0 49 -31 93 -76 112c-20 8 -41 9 -63 9h-160zM277 700h446c18 -4 36 -5 53 -11c106 -35 174 -124 174 -236
v-205c0 -138 -108 -248 -245 -248h-421c-133 5 -234 118 -234 248v205c0 125 90 228 214 245c4 1 8 1 13 2z" />
    <glyph glyph-name="uni0425" unicode="&#x425;" 
d="M950 700v-51s-5 -4 -369 -299c0 -1 369 -301 369 -301v-49h-42h-55l-352 285l-353 -285h-88h-10v48l371 302l-371 302v48h9h89l353 -286l353 286h96z" />
    <glyph glyph-name="uni0426" unicode="&#x426;" 
d="M152 700v-11v-463c0 -69 52 -125 121 -125h465h7v599h101v-599h103v-101h-8h-678c-109 0 -201 84 -212 192c0 8 -1 17 -1 25v483h102z" />
    <glyph glyph-name="uni0427" unicode="&#x427;" 
d="M949 0h-101v298h-10h-574c-115 0 -215 94 -215 210v184v8h104v-10v-165c0 -71 54 -125 125 -125h560h10v300h101v-700z" />
    <glyph glyph-name="uni0428" unicode="&#x428;" horiz-adv-x="998" 
d="M546 700v-597h9h165c69 0 123 53 123 122v466v9h105v-8v-482c0 -107 -83 -198 -190 -209c-2 0 -4 -1 -6 -1h-506c-2 0 -4 1 -6 1c-87 13 -147 59 -178 140c-6 17 -8 36 -12 54v505h99v-10v-465c0 -69 54 -122 124 -122h164h9v597h100z" />
    <glyph glyph-name="uni0429" unicode="&#x429;" horiz-adv-x="1100" 
d="M847 102v598h105v-599h98v-101h-8h-779c-119 0 -213 98 -213 216v474v10h99v-9v-465c0 -71 54 -125 126 -125h166h9v599h101v-598h296z" />
    <glyph glyph-name="uni042A" unicode="&#x42a;" 
d="M347 300v-196h6h392c7 0 14 1 21 3c48 11 81 56 75 104c-5 52 -47 89 -98 89h-388h-8zM255 0h-10v599h-195v101h296v-299h10h388c101 0 185 -73 200 -173c16 -106 -59 -208 -165 -225c-12 -2 -24 -3 -36 -3h-488z" />
    <glyph glyph-name="uni042B" unicode="&#x42b;" 
d="M151 300v-196h6h393c6 0 13 1 20 3c48 11 81 56 76 104c-6 52 -47 89 -98 89h-389h-8zM60 0h-10v700h100v-299h10h388c102 0 185 -72 200 -172c17 -106 -59 -210 -164 -226c-13 -2 -25 -3 -38 -3h-486zM851 0v700h97v-700h-97z" />
    <glyph glyph-name="uni042C" unicode="&#x42c;" 
d="M151 300v-196h6h590c7 0 14 1 21 3c48 11 81 56 76 104c-6 52 -47 89 -99 89h-586h-8zM50 700h101v-299h9h587c101 0 185 -73 199 -173c16 -111 -65 -215 -177 -227c-8 0 -16 -1 -24 -1h-686h-9v700z" />
    <glyph glyph-name="uni042D" unicode="&#x42d;" 
d="M146 501h-96c4 14 8 28 13 41c39 95 124 158 228 158h414c122 0 227 -93 242 -215c2 -10 2 -20 2 -31v-208c0 -135 -110 -246 -245 -246h-412c-117 0 -217 82 -241 196v3h94c5 -13 9 -27 16 -39c24 -40 60 -61 107 -62h456c69 0 124 55 124 124v73v8h-607v96h607v42
c-1 21 1 43 -3 63c-11 58 -62 98 -120 98h-457c-58 0 -107 -39 -120 -97c-1 -1 -1 -3 -2 -4z" />
    <glyph glyph-name="uni042E" unicode="&#x42e;" 
d="M849 348v130c-1 67 -55 121 -122 121h-254c-68 0 -122 -54 -123 -122v-256c1 -69 55 -123 123 -123h252c70 0 124 54 124 124v126zM476 700h247c18 -4 37 -5 54 -11c107 -37 172 -124 172 -237c1 -69 1 -137 0 -206c-1 -99 -47 -173 -134 -220c-33 -17 -70 -26 -107 -26
h-217c-135 1 -241 113 -241 246c-1 16 0 33 0 50h-102v-295h-98v699h98v-302h102v8c0 25 -1 49 1 73c8 97 77 182 171 210c18 5 36 7 54 11z" />
    <glyph glyph-name="uni042F" unicode="&#x42f;" 
d="M853 399v203h-5h-596c-7 0 -14 -1 -20 -3c-51 -11 -85 -59 -79 -108c6 -54 48 -92 101 -92h591h8zM951 700v-700h-101v299h-8h-197c-5 0 -9 -1 -13 -4c-95 -72 -189 -144 -285 -216c-71 -52 -152 -78 -241 -79h-55v95c97 0 184 27 262 85c51 38 103 76 154 114
c2 1 3 2 7 5h-9c-71 0 -143 0 -213 1c-78 1 -137 35 -176 103c-53 95 -18 218 77 271c30 17 63 26 99 26h699z" />
    <glyph glyph-name="uni0430" unicode="&#x430;" 
d="M251 98h458v202h-459c-55 -1 -100 -46 -100 -101c0 -56 45 -101 101 -101zM810 101h141v-101h-153c-12 4 -24 6 -35 12c-30 16 -47 41 -54 74v-86h-473c-6 1 -11 2 -16 3c-108 17 -183 120 -167 228c14 100 99 174 201 174h455v68c0 71 -53 125 -125 125h-435v102h464
c4 -1 9 -1 13 -2c108 -16 184 -105 184 -214v-383z" />
    <glyph glyph-name="uni0431" unicode="&#x431;" horiz-adv-x="1002" 
d="M487 300h-265c-34 0 -64 -25 -70 -58c-12 -71 45 -141 118 -141h484c28 0 53 11 71 33c28 33 34 70 16 109c-18 37 -49 56 -91 57h-263zM750 700h101c-1 -111 -90 -199 -200 -199h-378c-70 0 -122 -55 -122 -124c15 5 29 12 44 16c17 4 35 7 52 7c169 1 338 1 507 0
c100 0 186 -78 196 -178c11 -109 -62 -203 -170 -220c-9 -1 -18 -2 -27 -2h-491c-108 0 -200 84 -211 191c0 2 -1 4 -1 6v210c1 4 1 8 2 12c15 106 105 185 212 185h388c55 0 97 41 98 96z" />
    <glyph glyph-name="uni0432" unicode="&#x432;" horiz-adv-x="998" 
d="M148 297v-195h16h577c8 0 16 0 24 1c51 8 89 59 81 110s-47 85 -99 85h-587c-4 0 -8 -1 -12 -1zM151 598v-196h492c4 0 7 -1 11 0c57 3 100 56 91 112c-8 51 -48 85 -100 85h-481c-4 0 -9 0 -13 -1zM50 0v700c198 0 396 0 593 -1c71 0 128 -30 167 -89
c42 -64 45 -132 12 -201c-2 -3 -4 -6 -5 -9c-2 -3 -3 -5 -5 -9c4 -2 8 -4 13 -6c75 -35 117 -94 122 -176c6 -95 -63 -184 -157 -203c-17 -3 -35 -5 -52 -5h-668c-7 0 -13 -1 -20 -1z" />
    <glyph glyph-name="uni0433" unicode="&#x433;" 
d="M949 700v-298h-97v64v66v67h-701v-132v-66v-68v-66v-67v-66v-67v-67h-101v700h899z" />
    <glyph glyph-name="uni0434" unicode="&#x434;" horiz-adv-x="1002" 
d="M755 596h-301v-16c0 -27 1 -53 0 -80c-5 -126 -44 -209 -135 -300h437c3 22 2 385 -1 396zM353 700h502v-501h96v-199h-96v100h-700v-100h-104v199h13c160 -1 290 140 290 297c-1 62 -1 125 -1 187v17z" />
    <glyph glyph-name="uni0435" unicode="&#x435;" 
d="M152 399h698v79c0 69 -55 123 -124 123h-451c-69 0 -123 -54 -123 -124v-78zM951 0h-703c-17 4 -36 6 -53 13c-93 35 -144 109 -144 207c0 77 -1 155 0 232c1 100 47 174 135 221c33 18 68 26 105 27h418c119 -1 222 -91 239 -209l3 -18v-177c-26 0 -52 1 -78 1
c-135 1 -268 2 -403 2c-91 0 -183 -1 -273 -2c-15 -1 -30 0 -45 0v-73c0 -72 54 -126 125 -126h674v-98z" />
    <glyph glyph-name="uni0436" unicode="&#x436;" horiz-adv-x="1001" 
d="M51 546v98c22 1 44 1 65 -2c95 -14 171 -59 229 -137c23 -31 47 -61 68 -92c5 -7 11 -15 11 -15h28v302h97v-302h26c0 -1 5 6 8 9c26 35 52 69 78 104c48 64 111 105 189 124c33 8 67 10 100 9l1 -98c-77 0 -148 -7 -200 -71c-33 -41 -63 -84 -94 -126c2 -5 4 -9 6 -13
c29 -50 58 -103 87 -153c34 -57 84 -87 150 -88l51 -1v-94c-122 0 -210 35 -278 141c-29 46 -58 92 -85 138c-4 8 -11 19 -11 19h-28c0 -97 1 -201 1 -298h-97v297h-29s-1 -2 -5 -9c-30 -50 -60 -100 -92 -149c-58 -91 -145 -139 -249 -139h-27v94c19 0 37 1 55 1
c51 0 112 30 137 76c34 57 68 118 102 176c-3 4 -5 7 -7 10c-24 34 -48 68 -73 101c-43 58 -101 87 -173 88h-41z" />
    <glyph glyph-name="uni0437" unicode="&#x437;" horiz-adv-x="1001" 
d="M884 352c5 -5 9 -9 12 -13c52 -60 68 -130 42 -204c-30 -85 -104 -135 -193 -135h-678h-16v103c5 0 11 1 17 1h674c12 0 23 0 34 3c43 10 74 54 73 98c-1 45 -33 85 -77 94c-5 2 -11 1 -16 1l-360 1l-2 102l358 1c46 0 86 31 95 76c12 63 -34 118 -100 118
c-231 1 -465 1 -696 1v101c218 0 477 1 696 1c98 0 179 -65 198 -161c14 -66 -4 -125 -49 -176z" />
    <glyph glyph-name="uni0438" unicode="&#x438;" 
d="M143 0h-93v700h96v-567l709 567h95v-700h-96v569z" />
    <glyph glyph-name="uni0439" unicode="&#x439;" horiz-adv-x="1001" 
d="M676 1006c17 -29 33 -58 50 -88c-125 -72 -250 -145 -377 -218c-17 30 -34 58 -51 88c6 3 11 6 17 9c115 67 230 133 345 200c4 2 9 6 13 9h3zM143 1l-93 1v699h97v-567l709 567h94v-699l-96 -1l1 569z" />
    <glyph glyph-name="uni043A" unicode="&#x43a;" 
d="M152 299v-299h-102v700h50h52v-301c6 -1 10 -1 14 -1h85c11 -1 19 2 27 7c116 74 232 147 347 220c78 50 163 76 256 75h69v-99h-17c-22 -1 -45 0 -68 -1c-55 -2 -106 -17 -153 -46c-109 -66 -218 -134 -327 -202c-2 -1 -4 -3 -7 -5c5 -3 9 -6 13 -8
c99 -61 198 -121 296 -181c66 -41 138 -61 215 -62c15 -1 33 0 48 0v-96h-115c-63 5 -139 29 -193 63c-120 75 -239 151 -359 227c-11 7 -23 10 -36 10c-28 -1 -56 0 -84 0c-3 0 -6 -1 -11 -1z" />
    <glyph glyph-name="uni043B" unicode="&#x43b;" horiz-adv-x="1001" 
d="M950 1h-95v299v299h-406v-19c0 -93 -1 -186 0 -279c1 -165 -128 -293 -289 -301c-34 -1 -68 0 -102 0h-8v99h17c29 0 59 0 88 1c111 2 190 94 190 201v372v27h605v-699z" />
    <glyph glyph-name="uni043C" unicode="&#x43c;" 
d="M949 0h-92l-108 659l-178 -522h-142l-174 520l-112 -657h-93v36l105 664h186l158 -466l159 466h187l104 -665v-35z" />
    <glyph glyph-name="uni043D" unicode="&#x43d;" 
d="M50 700h98v-294h702v293h99v-698h-98v303h-702v-304h-99v700z" />
    <glyph glyph-name="uni043E" unicode="&#x43e;" 
d="M275 97h455c67 1 121 55 121 122v261c0 53 -54 122 -121 122h-457c-68 0 -122 -69 -122 -123v-258c0 -69 54 -124 124 -124zM705 -1h-409c-135 0 -246 109 -246 244v212c0 135 111 245 245 245h409c136 0 245 -110 245 -245c1 -70 1 -141 1 -211
c-1 -135 -110 -245 -245 -245z" />
    <glyph glyph-name="uni043F" unicode="&#x43f;" 
d="M849 0v599h-698v-599h-101v700h900v-700h-101z" />
    <glyph glyph-name="uni0440" unicode="&#x440;" 
d="M151 602v-203h601c7 0 14 1 20 2c51 12 86 59 80 109c-6 53 -49 92 -102 92h-599zM748 299h-597v-299h-101v700h701c102 0 187 -78 198 -179c12 -108 -64 -205 -171 -220c-10 -1 -20 -2 -30 -2z" />
    <glyph glyph-name="uni0441" unicode="&#x441;" horiz-adv-x="1001" 
d="M248 0c-18 4 -37 6 -55 13c-91 35 -142 111 -142 207c0 77 -1 154 0 231c1 101 47 175 134 222c33 18 69 27 107 27h416c119 -1 221 -91 238 -209c1 -8 3 -17 3 -25v-65h-103v9c0 28 1 56 -2 84c-5 60 -58 106 -118 106h-109h-342c-64 0 -113 -41 -124 -104
c-2 -13 -1 -27 -2 -40c0 -77 -1 -154 -1 -231c0 -70 54 -124 123 -124h474c56 0 98 41 101 97c0 0 0 1 1 2h103c-2 -15 -3 -30 -6 -44c-19 -83 -89 -145 -173 -155c-2 0 -3 -1 -5 -1h-518z" />
    <glyph glyph-name="uni0442" unicode="&#x442;" horiz-adv-x="1001" 
d="M950 700v-101h-398v-599h-99v599h-403v101h900z" />
    <glyph glyph-name="uni0443" unicode="&#x443;" 
d="M50 700h101v-9v-168c0 -69 53 -124 123 -124h567h7v301h102v-8v-478c-1 -110 -85 -202 -193 -213c-8 0 -16 -1 -24 -1h-672h-11v98h10h663c73 0 125 54 125 126v76h-9h-573c-115 0 -216 93 -216 210v185v5z" />
    <glyph glyph-name="uni0444" unicode="&#x444;" 
d="M454 98v503c-2 1 -3 1 -4 1h-180c-65 -1 -119 -56 -119 -122v-259c0 -68 55 -123 123 -123h172h8zM553 602v-503c1 -1 2 -1 3 -1h178c64 1 118 56 118 121v262c0 49 -31 93 -76 112c-20 8 -41 9 -63 9h-160zM277 700h446c18 -4 36 -5 53 -11c106 -35 174 -124 174 -236
v-205c0 -138 -108 -248 -245 -248h-421c-133 5 -234 118 -234 248v205c0 125 90 228 214 245c4 1 8 1 13 2z" />
    <glyph glyph-name="uni0445" unicode="&#x445;" 
d="M950 700v-51s-5 -4 -369 -299c0 -1 369 -301 369 -301v-49h-42h-55l-352 285l-353 -285h-88h-10v48l371 302l-371 302v48h9h89l353 -286l353 286h96z" />
    <glyph glyph-name="uni0446" unicode="&#x446;" 
d="M152 700v-11v-463c0 -69 52 -125 121 -125h465h7v599h101v-599h103v-101h-8h-678c-109 0 -201 84 -212 192c0 8 -1 17 -1 25v483h102z" />
    <glyph glyph-name="uni0447" unicode="&#x447;" 
d="M949 0h-101v298h-10h-574c-115 0 -215 94 -215 210v184v8h104v-10v-165c0 -71 54 -125 125 -125h560h10v300h101v-700z" />
    <glyph glyph-name="uni0448" unicode="&#x448;" horiz-adv-x="998" 
d="M546 700v-597h9h165c69 0 123 53 123 122v466v9h105v-8v-482c0 -107 -83 -198 -190 -209c-2 0 -4 -1 -6 -1h-506c-2 0 -4 1 -6 1c-87 13 -147 59 -178 140c-6 17 -8 36 -12 54v505h99v-10v-465c0 -69 54 -122 124 -122h164h9v597h100z" />
    <glyph glyph-name="uni0449" unicode="&#x449;" horiz-adv-x="1100" 
d="M847 102v598h105v-599h98v-101h-8h-779c-119 0 -213 98 -213 216v474v10h99v-9v-465c0 -71 54 -125 126 -125h166h9v599h101v-598h296z" />
    <glyph glyph-name="uni044A" unicode="&#x44a;" 
d="M347 300v-196h6h392c7 0 14 1 21 3c48 11 81 56 75 104c-5 52 -47 89 -98 89h-388h-8zM255 0h-10v599h-195v101h296v-299h10h388c101 0 185 -73 200 -173c16 -106 -59 -208 -165 -225c-12 -2 -24 -3 -36 -3h-488z" />
    <glyph glyph-name="uni044B" unicode="&#x44b;" 
d="M151 300v-196h6h393c6 0 13 1 20 3c48 11 81 56 76 104c-6 52 -47 89 -98 89h-389h-8zM60 0h-10v700h100v-299h10h388c102 0 185 -72 200 -172c17 -106 -59 -210 -164 -226c-13 -2 -25 -3 -38 -3h-486zM851 0v700h97v-700h-97z" />
    <glyph glyph-name="uni044C" unicode="&#x44c;" 
d="M151 300v-196h6h590c7 0 14 1 21 3c48 11 81 56 76 104c-6 52 -47 89 -99 89h-586h-8zM50 700h101v-299h9h587c101 0 185 -73 199 -173c16 -111 -65 -215 -177 -227c-8 0 -16 -1 -24 -1h-686h-9v700z" />
    <glyph glyph-name="uni044D" unicode="&#x44d;" 
d="M146 501h-96c4 14 8 28 13 41c39 95 124 158 228 158h414c122 0 227 -93 242 -215c2 -10 2 -20 2 -31v-208c0 -135 -110 -246 -245 -246h-412c-117 0 -217 82 -241 196v3h94c5 -13 9 -27 16 -39c24 -40 60 -61 107 -62h456c69 0 124 55 124 124v73v8h-607v96h607v42
c-1 21 1 43 -3 63c-11 58 -62 98 -120 98h-457c-58 0 -107 -39 -120 -97c-1 -1 -1 -3 -2 -4z" />
    <glyph glyph-name="uni044E" unicode="&#x44e;" 
d="M849 348v130c-1 67 -55 121 -122 121h-254c-68 0 -122 -54 -123 -122v-256c1 -69 55 -123 123 -123h252c70 0 124 54 124 124v126zM476 700h247c18 -4 37 -5 54 -11c107 -37 172 -124 172 -237c1 -69 1 -137 0 -206c-1 -99 -47 -173 -134 -220c-33 -17 -70 -26 -107 -26
h-217c-135 1 -241 113 -241 246c-1 16 0 33 0 50h-102v-295h-98v699h98v-302h102v8c0 25 -1 49 1 73c8 97 77 182 171 210c18 5 36 7 54 11z" />
    <glyph glyph-name="uni044F" unicode="&#x44f;" 
d="M853 399v203h-5h-596c-7 0 -14 -1 -20 -3c-51 -11 -85 -59 -79 -108c6 -54 48 -92 101 -92h591h8zM951 700v-700h-101v299h-8h-197c-5 0 -9 -1 -13 -4c-95 -72 -189 -144 -285 -216c-71 -52 -152 -78 -241 -79h-55v95c97 0 184 27 262 85c51 38 103 76 154 114
c2 1 3 2 7 5h-9c-71 0 -143 0 -213 1c-78 1 -137 35 -176 103c-53 95 -18 218 77 271c30 17 63 26 99 26h699z" />
    <glyph glyph-name="uni0451" unicode="&#x451;" horiz-adv-x="900" 
d="M101 399h698v79c0 69 -55 123 -124 123h-451c-69 0 -123 -54 -123 -124v-78zM900 0h-703c-17 4 -36 6 -53 13c-93 35 -144 109 -144 207c0 77 -1 155 0 232c1 100 47 174 135 221c33 18 68 26 105 27h418c119 -1 222 -91 239 -209l3 -18v-177c-26 0 -52 1 -78 1
c-135 1 -268 2 -403 2c-91 0 -183 -1 -273 -2c-15 -1 -30 0 -45 0v-73c0 -72 54 -126 125 -126h674v-98zM305 802h-100l-1 99h100zM702 901l1 -99h-102v99h101z" />
    <glyph glyph-name="uni0454" unicode="&#x454;" horiz-adv-x="900" 
d="M805 202h96c-5 -15 -8 -28 -13 -41c-39 -96 -122 -161 -227 -161l-413 -2c-135 -1 -247 109 -247 244c0 69 -1 139 -1 209c-1 134 109 247 243 247c137 1 275 2 412 3c116 1 219 -84 243 -198v-3h-93c-6 13 -10 27 -17 38c-24 40 -61 65 -108 65c-152 -1 -304 -2 -457 -3
c-69 -1 -123 -56 -122 -125v-73v-8c203 2 405 4 608 5v-96c-202 -2 -404 -3 -607 -5c0 -15 0 -28 1 -42c0 -21 -1 -43 3 -63c12 -58 62 -97 121 -97c152 1 304 3 456 4c59 0 107 40 120 97c0 2 1 3 2 5z" />
    <glyph glyph-name="uni0455" unicode="&#x455;" horiz-adv-x="900" 
d="M352 700c147 0 295 -1 443 -2h7v-100h-9h-590c-57 0 -101 -44 -100 -100c0 -53 44 -97 99 -97h315h179c102 0 186 -70 202 -171c17 -106 -60 -210 -165 -227c-13 -2 -25 -3 -37 -3h-685h-10v102h10h692c56 0 100 45 100 101c0 54 -45 97 -99 97c-167 1 -334 0 -501 0
c-98 0 -178 65 -199 161c-23 109 54 220 165 236c7 1 13 2 20 3h163z" />
    <glyph glyph-name="uni0456" unicode="&#x456;" horiz-adv-x="900" 
d="M0 101h400v500h-299v99h401v-599h398v-101h-900v101zM501 892v-97h-101v97h101z" />
    <glyph glyph-name="uni0457" unicode="&#x457;" horiz-adv-x="900" 
d="M0 101h400v500h-299v99h401v-599h398v-101h-900v101zM501 892v-97h-101v97h101zM198 795v98h101v-98h-101z" />
    <glyph glyph-name="uni0458" unicode="&#x458;" horiz-adv-x="900" 
d="M0 2v99h9h467c72 0 126 55 126 127v364v9h-602v99h900v-98h-198v-10v-371c0 -121 -94 -216 -213 -216c-111 -2 -223 -3 -334 -3h-155zM704 893v-96h-102v96h102z" />
    <glyph glyph-name="emdash" unicode="&#x2014;" 
d="M50 299v101h899l1 -101h-900z" />
    <glyph glyph-name="twodotenleader" unicode="&#x2025;" horiz-adv-x="900" 
d="M411 89c-2 -9 -5 -19 -8 -28c-16 -37 -54 -62 -93 -62c-52 0 -95 37 -103 88c-8 56 29 107 85 116c2 0 3 1 4 1h25c1 0 2 -1 3 -1c35 -6 61 -26 76 -57c5 -10 7 -22 11 -32v-25zM694 89c-2 -9 -5 -19 -8 -28c-16 -37 -54 -62 -93 -62c-52 0 -95 37 -103 88
c-8 56 29 107 85 116c2 0 3 1 4 1h25c1 0 2 -1 3 -1c35 -6 61 -26 76 -57c5 -10 7 -22 11 -32v-25z" />
    <glyph glyph-name="ellipsis" unicode="&#x2026;" horiz-adv-x="900" 
d="M553 89c-3 -9 -5 -19 -9 -28c-15 -37 -54 -62 -93 -62c-51 0 -94 37 -102 88c-9 56 29 107 85 116c1 0 3 1 4 1h24c2 0 3 -1 4 -1c35 -6 61 -26 76 -57c5 -10 7 -22 11 -32v-25zM206 89c-3 -9 -5 -19 -9 -28c-15 -37 -54 -62 -93 -62c-51 0 -95 37 -103 88
c-8 56 30 107 86 116c1 0 2 1 4 1h24c1 0 3 -1 4 -1c35 -6 61 -26 76 -57c5 -10 7 -22 11 -32v-25zM899 89c-11 -50 -45 -90 -101 -90c-52 0 -95 37 -103 88c-8 56 29 107 86 116c1 0 2 1 3 1h25c1 0 2 -1 3 -1c36 -6 61 -26 77 -57c4 -10 7 -22 10 -32v-25z" />
    <glyph glyph-name="female" unicode="&#x2640;" horiz-adv-x="900" 
d="M301 557c-2 -85 68 -152 148 -152c84 0 150 66 150 151s-67 153 -150 152c-90 -1 -150 -76 -148 -151zM418 801h56c7 -2 14 -4 22 -5c108 -20 190 -111 199 -218c7 -78 -12 -148 -67 -205c-33 -35 -72 -57 -118 -69c-2 0 -5 -1 -7 -1c-3 -12 -4 -75 -1 -103h203v-98h-203
c-3 -35 0 -69 -2 -104h-100v103c-17 1 -33 0 -49 0c-17 1 -34 0 -51 0h-99v98h198v101c-5 1 -9 3 -14 4c-102 29 -163 94 -185 198c-1 5 -3 11 -5 17v58c2 6 4 11 5 17c19 105 93 181 198 202c7 1 14 3 20 5z" />
    <glyph glyph-name="male" unicode="&#x2642;" horiz-adv-x="900" 
d="M201 250c-2 -84 67 -151 147 -151c83 0 149 66 149 150c1 83 -66 152 -148 151c-90 -1 -150 -76 -148 -150zM798 398h-99v125c-10 -3 -112 -103 -140 -137c40 -67 50 -139 27 -214c-32 -105 -128 -172 -236 -172c-66 0 -133 24 -183 76c-83 89 -86 229 -21 320
c48 66 126 103 205 103c46 0 92 -12 134 -38c46 46 91 92 138 138h-155v101h329z" />
    <glyph glyph-name="musicalnote" unicode="&#x266a;" horiz-adv-x="900" 
d="M274 89c50 0 89 38 89 86c0 49 -39 88 -89 88c-49 0 -88 -39 -88 -87c0 -49 39 -87 88 -87zM100 161v29c1 6 2 11 3 16c13 85 89 145 171 145c17 0 34 -2 51 -8c12 -3 23 -9 35 -13v370h153c2 0 3 -1 5 -1c86 -8 159 -68 184 -151c4 -15 6 -31 10 -46v-50
c-1 -2 -1 -3 -2 -5c-10 -100 -84 -176 -182 -191v2v84c0 2 3 5 5 5c86 33 111 135 64 204c-36 53 -88 66 -148 60v-8v-424c0 -81 -46 -144 -122 -171c-12 -4 -25 -5 -38 -8h-29c-2 0 -3 1 -5 1c-72 11 -120 50 -145 118c-5 13 -7 28 -10 42z" />
    <glyph glyph-name="uni3001" unicode="&#x3001;" horiz-adv-x="900" 
d="M145 270c61 -41 231 -162 291 -205c-15 -21 -30 -42 -45 -64c-60 41 -230 163 -290 205c9 12 18 26 28 39c5 8 11 16 16 25z" />
    <glyph glyph-name="uni3002" unicode="&#x3002;" horiz-adv-x="877" 
d="M204 70c16 0 30 14 30 32c0 17 -14 31 -30 31c-18 0 -32 -14 -32 -31c0 -18 14 -32 32 -32zM306 114v-25c-3 -9 -5 -19 -8 -28c-16 -37 -55 -62 -94 -62c-51 0 -94 37 -102 88c-9 56 29 107 85 116c1 0 3 1 4 1h24c2 0 3 -1 4 -1c35 -6 61 -26 76 -57c5 -10 7 -22 11 -32
z" />
    <glyph glyph-name="uni3005" unicode="&#x3005;" horiz-adv-x="900" 
d="M900 84c-15 -25 -30 -51 -45 -76c-1 -3 -3 -5 -4 -8c-140 80 -279 160 -419 241l51 87c52 -30 103 -60 156 -90c19 71 38 141 57 212h-442c1 -7 1 -14 1 -21c5 -81 -13 -157 -53 -228c-37 -65 -74 -130 -112 -196c-1 -1 -2 -2 -3 -5l-87 51c10 18 20 35 30 53
c25 44 52 88 75 134c34 69 45 142 38 218c-4 41 -17 81 -29 120c-12 42 -25 83 -38 124h117c13 -50 26 -99 39 -150h570v-8v-70c0 -10 -1 -21 -4 -31c-22 -83 -44 -165 -67 -248c-1 -6 0 -8 5 -11c38 -22 76 -44 114 -65c16 -10 33 -19 50 -28v-5z" />
    <glyph glyph-name="uni3007" unicode="&#x3007;" horiz-adv-x="900" 
d="M448 -1c-193 1 -348 157 -348 351c1 193 158 349 351 348c192 0 349 -158 348 -351c-1 -192 -157 -348 -351 -348zM451 100c138 0 250 111 250 248c1 137 -112 250 -250 250s-250 -112 -250 -249c0 -138 111 -249 250 -249z" />
    <glyph glyph-name="uni300C" unicode="&#x300c;" horiz-adv-x="900" 
d="M450 -104v910h450l-1 -105h-344v-805h-105z" />
    <glyph glyph-name="uni300D" unicode="&#x300d;" horiz-adv-x="900" 
d="M450 804v-909h-450v105h345v804h105z" />
    <glyph glyph-name="uni301C" unicode="&#x301c;" horiz-adv-x="900" 
d="M262 215h-95v122c1 1 1 3 1 4l3 18c3 12 7 25 13 36c9 20 27 43 46 56c9 8 19 14 30 19c20 11 41 15 64 15h6h5c6 0 12 -1 17 -1c7 -1 13 -3 20 -4c64 -18 92 -67 120 -124c2 -5 4 -11 7 -15c5 -8 10 -16 17 -22c8 -8 17 -13 27 -17c9 -2 19 -4 28 -3h9c27 6 47 17 59 44
c6 11 8 23 8 35v106v1h86v-121c-1 -1 -1 -2 -1 -3c-1 -4 -1 -7 -2 -10c-3 -25 -15 -53 -31 -72c-24 -33 -55 -51 -95 -61c-6 -1 -12 -2 -17 -3h-4h-27c-2 0 -4 0 -6 1c-7 1 -14 2 -21 4c-14 3 -28 8 -41 16c-20 11 -41 31 -52 51c-8 11 -14 22 -21 33c-5 11 -11 21 -16 31
c-5 8 -10 15 -16 21c-8 7 -16 12 -26 15c-9 3 -17 4 -26 3c-40 0 -69 -34 -69 -73v-101v-1z" />
    <glyph glyph-name="uni301E" unicode="&#x301e;" 
d="M546 631c32 88 64 175 97 261c11 -5 24 -9 36 -14c19 -6 38 -14 57 -20c-32 -88 -64 -175 -96 -261c-31 11 -62 23 -94 34zM795 892h1c11 -5 24 -9 36 -14c19 -6 38 -14 57 -20c-32 -88 -64 -175 -96 -261c-31 11 -62 23 -94 34c32 88 64 175 96 261z" />
    <glyph glyph-name="uni301F" unicode="&#x301f;" 
d="M204 295c33 -86 65 -173 97 -261c-32 -11 -63 -23 -95 -34c-32 87 -64 173 -95 261c19 6 38 14 57 20c11 5 24 9 36 14zM358 295c32 -86 64 -173 96 -261c-32 -11 -63 -23 -95 -34c-32 87 -64 173 -95 261c19 6 38 14 57 20c11 5 24 9 36 14h1z" />
    <glyph glyph-name="uni3033" unicode="&#x3033;" horiz-adv-x="900" 
d="M731 700v-105h-58l-29 -169c-32 -189 -72 -426 -72 -426h-93v36l105 664h147z" />
    <glyph glyph-name="uni3042" unicode="&#x3042;" 
d="M349 202v198h-95c-56 0 -100 -44 -100 -99s44 -99 100 -99h95zM451 400v-172c65 35 104 112 99 172h-99zM450 0h-100v99h-52c-23 1 -46 0 -68 2c-79 7 -149 65 -171 140c-4 14 -6 29 -9 43v34c0 2 1 3 1 5c12 103 98 180 201 180h97v96h-201v101h605v-101h-302v-96h249
c9 0 18 -1 28 -1c97 -9 182 -78 210 -172c5 -17 7 -35 11 -53v-51c-1 -2 -1 -4 -2 -6c-8 -96 -77 -181 -171 -209c-17 -5 -36 -7 -54 -11h-175v101h151c43 0 80 15 111 46c60 60 54 162 -10 217c-44 38 -96 39 -149 36c-8 -130 -69 -227 -193 -279c-5 -2 -7 -4 -7 -10
c1 -37 0 -74 0 -111z" />
    <glyph glyph-name="uni3044" unicode="&#x3044;" 
d="M152 700v-450c0 -85 65 -153 150 -153c72 0 139 56 147 130c2 21 1 42 2 64v11h100c1 -75 -3 -150 -54 -212c-43 -51 -98 -81 -165 -89c-2 0 -4 -1 -6 -1h-51c-2 0 -3 1 -5 1c-97 10 -181 78 -209 171c-5 17 -11 34 -11 53v475h102zM849 0v10v390c0 98 -65 178 -162 197
c-12 2 -23 3 -36 4v99h20c16 0 40 -5 59 -11c134 -41 219 -149 219 -289c1 -133 1 -267 1 -400h-101z" />
    <glyph glyph-name="uni3046" unicode="&#x3046;" 
d="M51 0v101h10h635c77 0 138 50 153 126c16 82 -46 160 -130 169c-8 1 -16 2 -24 2h-631h-13v102h9h645c123 0 227 -93 242 -214c7 -62 0 -115 -34 -169c-48 -77 -123 -117 -213 -117h-636h-13zM50 603v97h704v-97h-704z" />
    <glyph glyph-name="uni3048" unicode="&#x3048;" horiz-adv-x="999" 
d="M552 700v-97h-502v97h502zM50 0v72l356 381h-356v100h499v-97c-5 -4 -9 -7 -13 -10c-43 -47 -86 -93 -129 -139c0 0 -1 -1 -2 -3h8h108c76 0 136 -59 136 -134c1 -39 30 -68 69 -68h57c37 0 65 28 65 65v35h100c2 -52 3 -103 -34 -145c-29 -34 -66 -56 -110 -57h-103
c-81 1 -149 73 -150 155c0 29 -19 47 -48 47h-186c-5 0 -9 -1 -13 -5l-184 -197h-70z" />
    <glyph glyph-name="uni304A" unicode="&#x304a;" horiz-adv-x="998" 
d="M350 296h-101c-45 0 -84 -32 -93 -77c-9 -43 13 -88 54 -107c17 -8 33 -9 51 -9c45 0 88 25 89 75c1 39 0 78 0 118zM341 398h9v101h-199v100h199v101h101v-100h196v-101h-195v-101h8c96 0 191 1 287 0c77 -1 136 -35 174 -103c54 -94 19 -216 -76 -269
c-31 -17 -63 -25 -98 -25h-201v100h203c46 0 85 30 96 72c12 44 -7 89 -48 112c-13 7 -28 11 -43 11h-303v-127c0 -93 -75 -168 -168 -168c-30 0 -60 -1 -89 7c-92 27 -153 117 -142 212c10 92 77 162 169 176c9 2 19 2 28 2c31 1 62 0 92 0zM684 633c26 23 50 45 75 67
l189 -213c-25 -22 -50 -44 -76 -66c-62 71 -125 141 -188 212z" />
    <glyph glyph-name="uni304B" unicode="&#x304b;" 
d="M949 197c-1 -2 0 -4 -1 -6c-12 -88 -60 -147 -143 -179c-17 -6 -36 -8 -54 -12h-205v100h10h162c73 0 126 53 126 127v164v9h-394c0 -194 -137 -353 -325 -392c-17 -4 -35 -5 -53 -8h-22v99c17 2 33 2 50 6c124 23 216 114 241 238c3 19 4 38 6 57h-297v101h296v17v182
h104c0 -66 4 -133 4 -200h496c0 -66 -1 -202 -1 -303zM950 700v-100h-404v100h404z" />
    <glyph glyph-name="uni304C" unicode="&#x304c;" 
d="M50 401v99h296c0 66 1 134 1 200h105c0 -66 -2 -132 -2 -200h500v-8v-294c0 -2 -1 -5 -1 -7c-13 -87 -60 -147 -142 -177c-18 -7 -35 -9 -55 -13h-204v99h9h162c74 0 126 54 126 128v164v9h-393c0 -194 -136 -353 -324 -392c-18 -4 -36 -5 -54 -8h-24v99c18 2 36 3 52 5
c124 25 216 115 240 238c4 20 5 39 8 58h-300zM700 892c33 -86 65 -173 97 -261c-32 -11 -62 -23 -94 -34c-32 86 -64 173 -96 261c19 6 38 14 57 20c12 5 25 9 36 14zM854 892c32 -86 64 -173 96 -261c-32 -11 -62 -23 -94 -34c-32 86 -64 173 -96 261c19 6 38 14 57 20
c12 5 25 9 36 14h1z" />
    <glyph glyph-name="uni304D" unicode="&#x304d;" 
d="M950 400h-424c2 -3 4 -5 5 -7c42 -45 70 -76 130 -90c4 -1 30 -1 34 -1h146h8v-106h-550c-29 0 -51 -21 -50 -49c0 -24 20 -44 44 -46h9h537h10v-101h-7h-540c-88 0 -157 74 -151 161c5 79 71 141 150 141h168h10c-29 29 -54 56 -73 92c-3 5 -3 6 -3 6h-353v100h310
c-6 31 -10 64 -12 96h-298v104h900v-104h-495c0 -30 3 -58 11 -87c2 -7 3 -9 3 -9h481v-100z" />
    <glyph glyph-name="uni304E" unicode="&#x304e;" 
d="M701 899c32 -88 64 -175 96 -262c-32 -12 -63 -23 -95 -35c-32 87 -63 175 -95 262c19 8 39 14 57 21c13 5 24 9 37 14zM855 899c32 -88 63 -175 95 -262c-32 -12 -63 -23 -95 -35c-32 87 -63 175 -95 262c19 8 39 14 56 21c13 5 25 9 38 14h1zM359 499
c-9 35 -12 66 -11 99h-298v102h8h550l38 -98v-4h-192c-1 -34 4 -65 16 -97h479v-104h-420c1 -2 1 -4 2 -4c39 -46 60 -76 119 -90c3 -1 41 -1 45 -1h145h9v-106h-8h-75h-468c-36 0 -59 -34 -45 -66c8 -18 22 -27 41 -29h8h536h11v-101h-9h-538c-88 0 -160 73 -153 160
c4 79 73 142 150 142h170h9c-12 11 -22 23 -33 34c-12 18 -25 36 -38 54c-3 5 -6 7 -13 7h-335h-9v102h309z" />
    <glyph glyph-name="uni304F" unicode="&#x304f;" 
d="M715 700h101v-60l-490 -291l491 -289v-60h-103c-164 98 -336 200 -500 298v103c165 98 336 201 501 299z" />
    <glyph glyph-name="uni3050" unicode="&#x3050;" 
d="M797 632c-32 -12 -62 -23 -93 -35c-32 86 -63 172 -95 260c30 11 63 23 93 34c33 -86 63 -173 95 -259zM760 857c32 11 63 23 95 34c31 -86 63 -173 94 -259c-31 -12 -62 -23 -94 -35c-32 86 -63 172 -95 260zM551 700h54l27 -72l-470 -279l491 -289v-60h-103
c-164 98 -336 200 -500 298v103c165 98 336 201 501 299z" />
    <glyph glyph-name="uni3051" unicode="&#x3051;" horiz-adv-x="1001" 
d="M798 700v-98h153v-101h-153v-9v-189c0 -146 -102 -269 -245 -296c-18 -4 -36 -5 -55 -7v100c15 2 30 3 44 6c88 21 151 98 152 188v201v6h-245v100h245v99h104zM147 0h-97v700h100v-572c17 10 33 19 48 28c94 51 153 125 156 237c0 2 0 4 1 5c31 1 62 1 94 1
c-1 -12 -1 -25 -2 -38c-15 -128 -79 -211 -182 -280z" />
    <glyph glyph-name="uni3052" unicode="&#x3052;" 
d="M352 0v99c15 2 30 2 44 6c88 20 151 97 152 187c1 66 0 136 0 202v5h-198v99h198v102h104v-102h52l17 -49l134 49l18 -49l76 26v-76h-297v-9v-188c0 -143 -100 -267 -240 -298c-14 -3 -32 -4 -39 -4h-21zM50 700h100v-571h2c30 18 62 34 89 54c70 50 111 128 111 214h95
c-1 -17 -1 -33 -4 -50c-13 -82 -49 -152 -108 -211c-24 -25 -53 -44 -81 -63c-32 -23 -66 -45 -98 -68c-4 -2 -9 -4 -13 -4h-93v699zM703 896c31 -87 63 -173 95 -260c-32 -11 -63 -23 -95 -34c-32 87 -64 173 -95 260c19 7 37 14 56 20c13 5 25 9 36 14h3zM855 896
c31 -87 63 -173 95 -260c-32 -11 -63 -23 -95 -34c-32 87 -62 173 -94 260c19 7 38 14 56 20c13 5 24 9 36 14h2z" />
    <glyph glyph-name="uni3053" unicode="&#x3053;" horiz-adv-x="999" 
d="M252 305c-6 -15 -13 -30 -19 -46c-6 -14 -13 -28 -19 -42c-22 -54 16 -113 74 -113h463c51 0 93 40 96 92c0 2 0 3 1 6h101c-2 -16 -3 -31 -6 -46c-22 -93 -102 -156 -197 -156h-469c-122 0 -203 117 -160 231c9 23 19 46 28 69c1 4 3 6 7 6h96c1 0 2 0 4 -1zM50 602v98
h664v-97h-9c-206 0 -160 -35 -335 -197c-3 -3 -8 -5 -13 -5h-122h-9c70 68 139 134 210 201h-386z" />
    <glyph glyph-name="uni3054" unicode="&#x3054;" 
d="M706 934c32 -85 63 -170 94 -256c-31 -12 -61 -23 -94 -34c-30 85 -61 170 -92 256c19 7 37 14 56 20c11 5 24 9 35 14h1zM857 934c31 -85 62 -170 93 -256c-31 -12 -62 -23 -93 -34c-32 85 -62 170 -93 256c19 7 37 14 55 20c13 5 24 9 36 14h2zM252 305
c-6 -15 -13 -30 -19 -46c-6 -14 -13 -28 -19 -42c-22 -54 16 -113 74 -113h463c51 0 93 40 96 92c0 2 0 3 1 6h101c-2 -16 -3 -31 -6 -46c-22 -93 -102 -156 -197 -156h-469c-122 0 -203 117 -160 231c9 23 19 46 28 69c1 4 3 6 7 6h96c1 0 2 0 4 -1zM50 602v98h570l36 -97
h-36c-66 -1 -231 -177 -257 -202h-128h-9c70 68 139 134 210 201h-386z" />
    <glyph glyph-name="uni3055" unicode="&#x3055;" 
d="M50 501h312c-17 66 -12 130 -12 199h105v-9c0 -66 0 -122 12 -182c1 -6 3 -9 3 -9c154 0 317 1 471 1h9v-101h-422c0 0 -1 -1 -1 -2c48 -48 89 -79 158 -95c3 -1 7 -1 10 -1h146h9v-106h-9h-75h-468c-36 0 -59 -34 -44 -67c7 -17 21 -26 40 -28h8h537h11v-101h-9h-538
c-88 0 -157 73 -152 161c5 78 71 141 149 141h170h8c-11 13 -23 24 -32 36c-14 18 -27 37 -40 56c-3 5 -6 6 -12 6h-344v101z" />
    <glyph glyph-name="uni3056" unicode="&#x3056;" 
d="M50 501h312c-17 66 -12 130 -12 199h105v-9c0 -66 0 -122 12 -182c1 -6 3 -9 3 -9c154 0 317 1 471 1h9v-101h-422c0 0 -1 -1 -1 -2c48 -48 89 -79 158 -95c3 -1 7 -1 10 -1h146h9v-106h-9h-75h-468c-36 0 -59 -34 -44 -67c7 -17 21 -26 40 -28h8h537h11v-101h-9h-538
c-88 0 -157 73 -152 161c5 78 71 141 149 141h170h8c-11 13 -23 24 -32 36c-14 18 -27 37 -40 56c-3 5 -6 6 -12 6h-344v101zM702 891c32 -86 63 -173 95 -261c-32 -11 -62 -23 -94 -34c-32 86 -64 173 -96 261c20 6 39 14 58 20c11 5 24 9 35 14h2zM855 891
c32 -86 63 -173 95 -261c-32 -11 -62 -23 -94 -34c-32 86 -64 173 -96 261c19 6 39 14 58 20c11 5 24 9 35 14h2z" />
    <glyph glyph-name="uni3057" unicode="&#x3057;" horiz-adv-x="1001" 
d="M153 700v-360c0 -136 113 -242 246 -242h203c123 0 226 88 244 208c4 27 2 55 3 83v9h101v-5c0 -32 1 -64 -1 -96c-12 -169 -156 -294 -324 -296c-83 -1 -165 -1 -247 0c-170 0 -312 123 -327 294c0 2 -1 4 -1 7v398h103z" />
    <glyph glyph-name="uni3058" unicode="&#x3058;" 
d="M153 700v-360c0 -136 113 -242 246 -242h203c123 0 226 88 244 208c4 27 2 55 3 83v9h101v-5c0 -32 1 -64 -1 -96c-12 -169 -156 -294 -324 -296c-83 -1 -165 -1 -247 0c-170 0 -312 123 -327 294c0 2 -1 4 -1 7v398h103zM700 892c33 -86 65 -173 97 -261
c-32 -11 -62 -23 -94 -34c-32 86 -64 173 -96 261c19 6 38 14 57 20c12 5 25 9 36 14zM854 892c32 -86 64 -173 96 -261c-32 -11 -62 -23 -94 -34c-32 86 -64 173 -96 261c19 6 38 14 57 20c12 5 25 9 36 14h1z" />
    <glyph glyph-name="uni3059" unicode="&#x3059;" 
d="M513 293c1 28 -20 50 -47 50c-28 0 -49 -22 -49 -48c0 -30 20 -52 48 -52c27 0 48 21 48 50zM514 699h101v-105h241v-96h-241v-399c0 -57 -42 -100 -100 -100h-392v97h391v53c-18 -4 -34 -6 -50 -6c-53 0 -97 23 -128 75c-31 53 -29 110 7 161c31 45 72 66 121 66
c16 0 33 -2 50 -7v59h-391v97h391v105z" />
    <glyph glyph-name="uni305A" unicode="&#x305a;" 
d="M456 290c0 28 -20 49 -47 49c-28 0 -48 -22 -48 -48c-1 -29 20 -51 47 -51s48 22 48 50zM159 95h298v53c-18 -4 -35 -7 -51 -7c-51 0 -94 23 -124 73c-33 54 -30 111 7 163c30 43 70 62 116 62c17 0 34 -2 52 -7v65h-406v97h406v105h99v-104h97l19 -52l147 54l37 -100
h-299v-398c0 -58 -42 -100 -100 -100h-298v96zM798 633c-31 -12 -61 -23 -93 -34c-31 86 -63 171 -94 257c31 12 62 23 93 35c32 -86 63 -172 94 -258zM762 856l93 35c32 -87 63 -172 94 -258c-31 -12 -62 -23 -93 -34c-32 86 -63 171 -94 257z" />
    <glyph glyph-name="uni305B" unicode="&#x305b;" 
d="M742 700v-145h208v-101h-208v-9v-141c0 -56 -43 -99 -99 -99h-190h-8v95h199v154h-299v-26v-175c0 -86 68 -153 154 -153h333h10v-100h-374c-17 4 -35 5 -52 11c-105 36 -172 123 -172 234v199v10h-194v100h194v146h100v-145h301v145h97z" />
    <glyph glyph-name="uni305C" unicode="&#x305c;" 
d="M706 934c32 -85 63 -170 94 -256c-31 -12 -61 -23 -94 -34c-30 85 -61 170 -92 256c19 7 37 14 56 20c11 5 24 9 35 14h1zM857 934c31 -85 62 -170 93 -256c-31 -12 -62 -23 -93 -34c-32 85 -62 170 -93 256c19 7 37 14 55 20c13 5 24 9 36 14h2zM344 555h606v-101h-208
v-9v-141c0 -56 -43 -99 -99 -99h-190h-8v95h199v154h-299v-26v-175c0 -86 68 -153 154 -153h333h10v-100h-374c-17 4 -35 5 -52 11c-105 36 -172 123 -172 234v199v10h-194v100h194v146h100v-145z" />
    <glyph glyph-name="uni305D" unicode="&#x305d;" 
d="M950 298l-305 -1c-56 0 -99 -44 -99 -99c0 -53 44 -97 97 -97c65 -1 130 0 195 0h9v-100c-2 -1 -5 -1 -7 -1h-197c-101 0 -186 78 -196 178c-4 41 3 80 22 116c1 2 2 4 4 7h-322v101c65 0 120 6 181 29c41 16 77 40 112 66c45 33 90 65 135 98c2 1 3 2 6 5h-535v100h788
v-100h-53c-28 0 -44 -6 -64 -21c-74 -58 -149 -113 -224 -170c-3 -2 -5 -4 -9 -7h462v-104z" />
    <glyph glyph-name="uni305E" unicode="&#x305e;" 
d="M50 701h561l65 -161l-6 -4c-59 -44 -119 -89 -179 -135h455v-100c-1 0 -4 -1 -6 -1h-63c-77 0 -155 0 -232 -2c-50 0 -92 -41 -96 -91c-3 -51 33 -96 83 -104c6 -1 12 -1 18 -1h192h10v-102h-221c-8 1 -17 3 -24 5c-129 26 -198 172 -137 287c2 2 3 5 4 9h-322v100
c99 0 176 13 259 71c59 40 116 83 174 125c1 1 1 2 2 3h-537v101zM607 865c32 12 64 23 95 35c32 -87 64 -174 95 -261c-31 -12 -62 -23 -94 -35c-32 86 -64 174 -96 261zM856 604c-32 88 -64 174 -96 261c32 12 64 23 95 35c32 -87 64 -174 95 -261
c-31 -12 -62 -23 -94 -35z" />
    <glyph glyph-name="uni305F" unicode="&#x305f;" 
d="M348 700v-103h198v-97h-198v-9v-194c0 -140 -95 -259 -232 -290c-14 -3 -29 -5 -44 -7h-21v98c16 2 31 3 45 6c88 21 150 97 151 186c2 68 1 137 1 205c0 2 -1 3 -1 5h-98h-99v97h198v103h100zM453 300v100h497v-100h-9c-31 0 -61 -1 -92 0c-39 2 -81 -28 -92 -67
c-3 -10 -5 -20 -7 -31h-98c1 35 9 67 27 98h-226zM501 200h97c5 -15 7 -30 13 -44c19 -37 49 -56 90 -56h240h9v-100h-7h-243c-111 0 -199 90 -199 200z" />
    <glyph glyph-name="uni3060" unicode="&#x3060;" 
d="M348 700v-103h198v-97h-198v-9v-194c0 -140 -95 -259 -232 -290c-14 -3 -29 -5 -44 -7h-21v98c16 2 31 3 45 6c88 21 150 97 151 186c2 68 1 137 1 205c0 2 -1 3 -1 5h-98h-99v97h198v103h100zM453 300v100h497v-100h-9c-31 0 -61 -1 -92 0c-39 2 -81 -28 -92 -67
c-3 -10 -5 -20 -7 -31h-98c1 35 9 67 27 98h-226zM501 200h97c5 -15 7 -30 13 -44c19 -37 49 -56 90 -56h240h9v-100h-7h-243c-111 0 -199 90 -199 200zM700 892c33 -86 65 -173 97 -261c-32 -11 -62 -23 -94 -34c-32 86 -64 173 -96 261c19 6 38 14 57 20c12 5 25 9 36 14z
M854 892c32 -86 64 -173 96 -261c-32 -11 -62 -23 -94 -34c-32 86 -64 173 -96 261c19 6 38 14 57 20c12 5 25 9 36 14h1z" />
    <glyph glyph-name="uni3061" unicode="&#x3061;" 
d="M521 302h176c32 0 61 -9 87 -26c74 -50 88 -157 28 -225c-30 -34 -69 -51 -114 -51h-538h-9v101h10h541c29 0 50 21 49 49c0 30 -24 46 -52 46c-183 0 -365 -1 -548 -1v107h8h158c7 0 9 1 16 3c57 15 96 45 136 88c1 2 3 4 5 7h-424v100h481s1 3 3 10
c18 61 12 127 12 190h105c-2 -66 5 -134 -12 -200h311v-100h-9h-343s0 -1 -4 -7c-18 -32 -41 -60 -67 -86c-2 -1 -3 -2 -6 -5z" />
    <glyph glyph-name="uni3062" unicode="&#x3062;" 
d="M50 501h370c7 0 10 1 11 9c8 27 12 56 12 84v97v8h104c-1 -67 7 -133 -11 -198h414v-102h-10c-146 0 -291 0 -435 1c-8 0 -10 -2 -14 -9c-18 -30 -41 -58 -66 -82c-1 -3 -4 -4 -7 -6c2 0 2 -1 2 -1h9h269c85 0 151 -69 151 -154c-1 -80 -69 -148 -149 -148h-195h-344h-9
v101h9h540c36 0 60 34 46 67c-9 17 -23 26 -40 28h-8h-513h-42v30v62c0 3 0 6 5 8c2 0 2 4 3 6h43c23 -1 42 7 63 15c42 17 78 42 108 76c1 2 3 3 5 6h-321v102zM699 892c32 -86 64 -173 95 -261c-31 -11 -63 -23 -95 -34c-32 86 -63 173 -94 261c19 6 38 14 56 20
c12 5 24 9 37 14h1zM852 892c32 -86 64 -173 95 -261c-31 -11 -62 -23 -95 -34c-31 86 -63 173 -94 261c19 6 38 14 57 20c11 5 24 9 36 14h1z" />
    <glyph glyph-name="uni3064" unicode="&#x3064;" 
d="M255 0v101h10h342c121 0 225 92 242 211c19 131 -60 250 -191 279c-17 4 -35 6 -52 6h-545h-11v103h9h567c158 0 295 -116 320 -273c2 -10 3 -21 4 -31v-92c-14 -142 -105 -261 -248 -295c-18 -4 -37 -6 -56 -9h-391z" />
    <glyph glyph-name="uni3065" unicode="&#x3065;" 
d="M733 562c39 14 114 40 114 40c68 -49 102 -138 103 -225c0 -26 0 -52 -2 -78c-12 -170 -154 -298 -324 -298c-124 -1 -249 -1 -373 -1h-9v102h8h355c122 0 227 90 243 211c14 102 -24 184 -108 244c-2 1 -3 2 -5 3zM618 700l37 -103h-605v103h9h559zM797 640
c-32 -11 -63 -23 -95 -34c-32 87 -64 174 -96 262c32 11 63 23 95 34c32 -87 64 -174 96 -262zM760 868c31 11 63 23 95 34c31 -87 63 -174 95 -262c-31 -11 -63 -23 -95 -34c-32 87 -64 174 -95 262z" />
    <glyph glyph-name="uni3066" unicode="&#x3066;" 
d="M950 700v-95h-11c-167 0 -333 0 -499 1c-7 0 -10 -3 -12 -9c-37 -90 -74 -180 -109 -271c-42 -110 40 -227 158 -227c38 0 76 -1 114 0c104 0 192 80 203 184c0 6 1 13 1 21h102c-1 -16 -2 -32 -5 -47c-25 -150 -146 -254 -296 -257h-149c-129 1 -238 101 -250 229
c-4 43 2 84 18 124c33 81 66 163 98 245c1 2 2 4 3 7h-133h-133v95h900z" />
    <glyph glyph-name="uni3067" unicode="&#x3067;" 
d="M706 934c32 -85 63 -170 94 -256c-31 -12 -61 -23 -94 -34c-30 85 -61 170 -92 256c19 7 37 14 56 20c11 5 24 9 35 14h1zM857 934c31 -85 62 -170 93 -256c-31 -12 -62 -23 -93 -34c-32 85 -62 170 -93 256c19 7 37 14 55 20c13 5 24 9 36 14h2zM629 700l26 -95
c-67 0 -148 1 -215 1c-7 0 -10 -3 -12 -9c-37 -90 -74 -180 -109 -271c-42 -110 40 -227 158 -227c38 0 76 -1 114 0c104 0 192 80 203 184c0 6 1 13 1 21h102c-1 -16 -2 -32 -5 -47c-25 -150 -146 -254 -296 -257h-149c-129 1 -238 101 -250 229c-4 43 2 84 18 124
c33 81 66 163 98 245c1 2 2 4 3 7h-133h-133v95h579z" />
    <glyph glyph-name="uni3068" unicode="&#x3068;" 
d="M50 232c0 12 3 27 7 40c27 87 85 139 174 156c1 0 6 1 7 2v270h101v-259c204 23 407 46 611 68v-101l-72 -9l-330 -42c-59 -7 -117 -15 -176 -22c-42 -6 -85 -12 -127 -16c-58 -7 -100 -56 -97 -115c3 -56 51 -101 109 -101h683h10v-103h-8h-678c-109 0 -202 84 -214 192
v5v35z" />
    <glyph glyph-name="uni3069" unicode="&#x3069;" 
d="M50 232c0 12 3 27 7 40c27 87 85 139 174 156c1 0 6 1 7 2v270h101v-259c204 23 407 46 611 68v-101l-72 -9l-330 -42c-59 -7 -117 -15 -176 -22c-42 -6 -85 -12 -127 -16c-58 -7 -100 -56 -97 -115c3 -56 51 -101 109 -101h683h10v-103h-8h-678c-109 0 -202 84 -214 192
v5v35zM610 863c31 11 63 23 94 34c32 -87 64 -172 94 -259c-30 -11 -61 -23 -93 -34c-32 85 -64 172 -95 259zM857 604c-32 86 -64 172 -96 259c32 11 64 23 95 34c32 -87 64 -172 94 -259c-30 -11 -61 -23 -93 -34z" />
    <glyph glyph-name="uni306A" unicode="&#x306a;" 
d="M658 193c-18 0 -36 1 -54 0c-29 -2 -47 -32 -37 -59c6 -18 22 -28 43 -28c23 0 45 13 48 37c2 16 0 33 0 50zM72 -1h-20v97c15 3 29 4 43 8c85 20 146 95 147 185c1 69 0 137 0 206v5h-192v97h192v103h98v-103h227v-97h-227v-204c0 -140 -93 -259 -226 -290
c-14 -3 -28 -4 -42 -7zM951 500h-194v-208c18 -3 35 -5 52 -9c76 -21 133 -90 140 -170c3 -38 1 -76 1 -114h-95v91c-1 53 -42 97 -92 100h-5v-38c0 -84 -67 -150 -150 -150c-68 0 -127 49 -141 120c-14 80 43 161 122 170c20 2 41 1 62 1h8v303h292v-96z" />
    <glyph glyph-name="uni306B" unicode="&#x306b;" 
d="M150 700v-10v-393c0 -97 66 -176 160 -195c12 -2 23 -2 36 -4v-98h-20c-20 4 -40 5 -59 11c-133 41 -217 149 -217 288v401h100zM556 500h-98c0 35 9 69 26 100h-225v100h691v-100h-10c-95 0 -190 -1 -285 0c-40 1 -81 -28 -93 -68c-3 -10 -4 -22 -6 -32zM452 395h100
v-24c1 -44 0 -89 2 -133c3 -68 62 -129 130 -137c9 0 18 -1 27 -1h230h9v-100h-7h-251c-134 0 -240 112 -240 244v151z" />
    <glyph glyph-name="uni306C" unicode="&#x306c;" 
d="M176 442c-14 -21 -22 -43 -22 -68v-174c0 -6 1 -15 3 -21c10 -48 49 -79 97 -78c26 0 52 -1 77 0c12 0 25 3 39 5c-65 113 -129 225 -194 336zM451 226v267h-188c61 -104 120 -208 180 -311c1 0 2 0 3 1c2 13 5 29 5 43zM747 153c0 29 -21 53 -49 53
c-26 0 -48 -24 -49 -50c0 -30 20 -52 48 -52c27 0 49 21 50 49zM50 189v210c10 55 21 94 64 135c1 2 3 3 5 5c-21 37 -42 74 -64 111c29 17 58 33 88 50c1 -2 3 -4 4 -6c19 -33 38 -66 57 -100c3 -5 5 -6 11 -5c17 3 33 6 50 6h186v105h97v-105h185c119 0 216 -93 216 -212
v-138c0 -44 -11 -85 -34 -123c-2 -4 -3 -7 0 -12c12 -19 23 -39 35 -60c-29 -16 -58 -33 -88 -50c-8 14 -16 25 -24 39c-11 -5 -21 -11 -32 -16c-29 -14 -59 -23 -91 -23c-57 0 -113 24 -144 74c-28 47 -31 98 -9 147c26 55 81 85 137 85c68 0 119 -41 142 -103
c6 16 10 32 10 48c0 42 1 84 0 127c-2 62 -55 114 -117 115c-61 1 -121 0 -182 0h-4v-279c0 -105 -79 -198 -185 -211c-22 -3 -43 -2 -65 -2c-26 0 -52 -1 -77 3c-88 12 -161 89 -170 177c0 2 -1 6 -1 8z" />
    <glyph glyph-name="uni306D" unicode="&#x306d;" 
d="M757 154c1 28 -22 50 -52 51c-28 0 -52 -22 -53 -48c0 -30 22 -54 51 -55c30 0 54 23 54 52zM353 247v-247h-101v157h-2c-40 -52 -79 -104 -120 -157c-27 21 -53 41 -80 62c12 16 24 31 36 47c54 71 108 141 162 212c2 2 4 5 4 8v168c0 1 -1 1 -1 3h-201v100h202v100h100
v-191c7 7 12 12 18 16c70 62 147 87 240 87c170 0 305 -107 336 -278c9 -50 9 -100 -6 -149c-7 -21 -17 -42 -27 -62c-2 -5 -2 -8 1 -12c11 -15 22 -29 32 -44c2 -2 3 -4 5 -7c-27 -20 -53 -39 -81 -59c-10 14 -21 28 -32 42c-12 -6 -24 -13 -36 -19
c-32 -14 -64 -22 -98 -22c-74 0 -142 51 -151 127c-8 65 15 120 72 155c24 15 51 22 77 22c57 0 112 -33 137 -91c1 -2 2 -5 3 -7h3c2 12 6 24 7 36c2 40 3 81 -11 120c-31 86 -110 142 -202 142c-35 0 -69 0 -103 -10c-112 -36 -183 -132 -183 -249z" />
    <glyph glyph-name="uni306E" unicode="&#x306e;" 
d="M451 287v309c-6 0 -12 0 -17 -1c-147 -18 -267 -135 -278 -285c-2 -39 -2 -79 -1 -118c3 -58 49 -89 103 -89h10c101 0 183 82 183 184zM548 1v100h82c108 0 196 71 218 177c10 53 3 104 -20 152c-50 107 -136 163 -254 167h-22v-322c0 -131 -97 -246 -226 -268
c-23 -4 -46 -5 -69 -5c-111 4 -202 78 -206 194c-1 36 -1 71 1 106c15 227 205 397 432 397c35 0 71 1 106 -1c175 -14 320 -143 352 -316c15 -77 9 -151 -29 -220c-48 -86 -121 -139 -219 -156c-25 -5 -52 -4 -79 -5c-22 -1 -44 0 -67 0z" />
    <glyph glyph-name="uni306F" unicode="&#x306f;" 
d="M643 196c-19 0 -39 1 -57 0c-29 -2 -48 -33 -39 -60c7 -19 23 -30 46 -30s47 14 49 39c3 16 1 33 1 51zM354 0h-21c-19 0 -37 3 -54 7c-134 33 -229 160 -229 297v396h103v-392c0 -101 66 -184 165 -204c11 -2 24 -2 36 -4v-100zM948 2h-100c0 31 1 63 0 94
c0 52 -42 92 -95 97h-6v-37c0 -89 -70 -155 -157 -155c-84 0 -153 70 -149 157c5 77 69 144 146 145h57v102h-203v95h203v200h102v-200h204v-95h-203v-106h5c110 -4 196 -93 196 -203v-94z" />
    <glyph glyph-name="uni3070" unicode="&#x3070;" 
d="M570 195c-18 0 -37 1 -56 0c-28 -3 -46 -32 -37 -59c7 -21 25 -31 50 -30c20 2 40 17 43 38c2 16 0 33 0 51zM50 277v423h100v-400c0 -99 66 -178 163 -197c11 -2 22 -3 35 -4v-99h-19c-12 0 -25 1 -35 2c-115 18 -212 115 -236 229c-4 15 -5 31 -8 46zM930 0h-96
c0 27 0 52 -8 78c-20 63 -77 109 -144 113h-10v-37c-1 -87 -68 -152 -154 -152c-32 0 -63 11 -91 34c-45 36 -65 97 -49 153c19 65 75 106 142 106h52v100h-199v98h199v106h100v-106h199v-98h-199v-102c13 -2 24 -2 36 -4c113 -16 204 -107 220 -219c2 -23 2 -47 2 -70z
M798 632c-32 -12 -63 -23 -94 -35c-32 86 -63 172 -95 260c31 11 63 23 94 35c32 -87 63 -174 95 -260zM760 857c33 11 63 23 96 35c30 -87 63 -174 93 -260c-30 -12 -61 -23 -93 -35c-33 86 -63 172 -96 260z" />
    <glyph glyph-name="uni3071" unicode="&#x3071;" 
d="M581 199c-18 0 -38 1 -57 0c-26 -2 -46 -27 -40 -53c5 -24 23 -37 47 -37c25 0 46 15 50 38c2 16 0 34 0 52zM848 680c17 0 31 14 31 31s-14 31 -31 31s-31 -14 -31 -31s14 -31 31 -31zM50 283v431h102v-408c1 -100 67 -181 166 -200c11 -3 23 -4 36 -5v-101h-20
c-10 1 -21 4 -32 5c-118 19 -219 114 -244 231c-3 15 -6 32 -8 47zM949 0h-100c0 27 2 53 -7 80c-21 65 -79 111 -148 115c-2 1 -5 1 -9 1v-40c-2 -63 -30 -110 -88 -137c-23 -11 -46 -17 -69 -17c-32 0 -64 12 -93 35c-47 36 -67 99 -50 156c16 57 65 99 124 108
c7 0 14 1 21 1h52v102h-202v98h202v165h103v-163h203v-100h-203v-105c13 -1 25 -2 36 -4c116 -16 209 -108 225 -223c3 -24 2 -48 3 -72zM950 723v-25c-11 -50 -45 -90 -101 -90c-51 0 -95 37 -103 88c-8 56 29 107 86 116c1 0 2 1 3 1h25c1 0 2 -1 4 -1
c54 -9 73 -42 86 -89z" />
    <glyph glyph-name="uni3072" unicode="&#x3072;" 
d="M476 1c-15 0 -36 6 -54 11c-108 31 -178 134 -178 244v261v10c-2 -1 -4 -2 -5 -3c-31 -17 -63 -23 -98 -23h-91v102h20h71c55 0 97 35 102 90v7h103v-9v-441c0 -84 66 -152 150 -152c85 0 149 71 149 154v438v10h115c2 -10 4 -20 7 -30c13 -41 51 -67 93 -67h90v-102h-87
c-30 0 -58 4 -85 17c-11 6 -21 12 -33 18v-9v-273c0 -114 -72 -215 -184 -244c-15 -4 -31 -8 -47 -9c-13 -1 -25 -1 -38 0z" />
    <glyph glyph-name="uni3073" unicode="&#x3073;" 
d="M480 0c-18 4 -36 6 -52 10c-111 32 -179 133 -179 246v260v9c-12 -4 -22 -6 -32 -11c-23 -9 -47 -13 -71 -13h-96v102h29h65c56 0 98 35 103 91c0 2 2 4 2 7h50h51v-9v-443c0 -85 67 -152 151 -152c85 0 148 70 148 153v219c0 10 -1 21 -1 31h100c0 -5 2 -12 2 -17
c4 -51 52 -82 100 -82h99v-102l-1 -1c-37 1 -83 0 -120 2c-25 0 -48 9 -70 20c-2 2 -5 3 -7 4c0 -4 -1 -6 -1 -9c0 -28 1 -61 -2 -89c-13 -122 -104 -211 -224 -225c-2 0 -3 -1 -6 -1h-38zM702 890c32 -86 64 -173 96 -261c-32 -11 -62 -22 -96 -34c-30 87 -62 173 -94 261
c19 6 39 14 58 20c11 5 24 9 35 14h1zM855 890c32 -86 64 -173 95 -261c-31 -11 -63 -22 -95 -34c-32 87 -62 173 -94 261c19 6 38 14 56 20c13 5 24 9 37 14h1z" />
    <glyph glyph-name="uni3074" unicode="&#x3074;" 
d="M846 680c16 0 30 14 30 31s-14 31 -30 31c-18 0 -32 -14 -32 -31s14 -31 32 -31zM520 -2h-38c-18 4 -36 6 -52 10c-98 28 -170 116 -179 217c-2 9 -2 20 -2 30v270c-11 -3 -21 -6 -32 -11c-23 -9 -47 -13 -71 -13h-96v102h95c56 0 98 36 103 92c0 2 1 4 1 7h103v-454
c0 -86 66 -152 151 -152c73 0 140 56 147 131c2 7 2 15 2 23v219c0 11 -2 21 -2 31h101c0 -5 2 -12 2 -17c2 -23 14 -41 29 -56c20 -18 43 -27 72 -27h97v-102l-2 -1c-37 1 -80 0 -117 2c-26 0 -49 9 -70 21c-3 1 -6 2 -8 4c0 -4 -1 -7 -1 -9c0 -28 1 -62 -2 -90
c-13 -122 -104 -212 -224 -226c-3 0 -4 -1 -7 -1zM948 723v-25c-2 -9 -5 -18 -8 -28c-16 -37 -54 -62 -93 -62c-52 0 -95 37 -103 88c-8 56 29 107 85 116c2 0 3 1 4 1h25c1 0 2 -1 3 -1c35 -6 61 -26 76 -57c5 -10 7 -21 11 -32z" />
    <glyph glyph-name="uni3075" unicode="&#x3075;" horiz-adv-x="998" 
d="M347 3v103h10c65 0 130 0 195 1c20 0 36 9 44 28c9 19 6 36 -8 52c-9 12 -23 16 -38 16c-19 1 -39 0 -58 1c-49 3 -91 45 -91 95c-1 83 0 166 0 249v2h100v-8v-173c0 -41 27 -68 68 -69c72 -1 129 -59 129 -131c1 -31 -2 -61 -17 -88c-28 -49 -70 -78 -126 -79
c-68 -2 -137 0 -205 1h-3zM849 700v-100h-698v100h698zM248 547h102v-8v-88c0 -144 -96 -265 -237 -296c-20 -5 -41 -6 -63 -9v98c13 2 27 3 40 6c84 17 149 88 156 173c3 38 1 76 2 114v10zM648 548h102v-9v-95c0 -102 78 -188 180 -197c6 -1 12 -1 18 -2v-98
c-11 1 -23 1 -34 3c-101 14 -178 65 -228 153c-25 42 -37 88 -38 136c-1 36 0 72 0 109z" />
    <glyph glyph-name="uni3076" unicode="&#x3076;" 
d="M348 3v103h10h195c20 0 36 10 44 29c8 18 5 36 -8 52c-10 11 -23 16 -38 16c-19 0 -39 -1 -59 1c-49 3 -90 45 -90 94c-1 83 0 166 0 249v2h100v-8v-174c0 -39 28 -67 67 -67c72 -2 129 -60 130 -132c0 -31 -2 -60 -17 -88c-28 -49 -70 -78 -127 -79
c-68 -1 -136 1 -204 1c-1 0 -1 1 -3 1zM248 547h101c1 -1 1 -2 1 -2c0 -41 1 -82 -1 -123c-12 -154 -144 -275 -299 -275v97c11 1 21 2 32 4c99 15 166 102 166 200v99zM649 547h102v-9v-97c0 -100 79 -186 179 -195c6 0 13 -1 20 -1v-98c-12 1 -25 1 -36 2
c-148 21 -262 140 -265 290c-1 34 0 69 0 103v5zM152 602v98h8h457l35 -98h-500zM608 869c32 12 63 23 95 35c31 -87 63 -174 94 -261c-31 -11 -62 -23 -94 -34c-32 87 -63 173 -95 260zM950 643c-32 -11 -63 -23 -95 -34c-31 87 -63 173 -94 260c31 12 62 23 94 35
c32 -87 63 -173 95 -261z" />
    <glyph glyph-name="uni3077" unicode="&#x3077;" 
d="M848 667c17 0 31 14 31 31c0 16 -14 30 -31 30c-16 0 -30 -14 -30 -30c0 -17 14 -31 30 -31zM50 145v99c6 0 12 1 17 2c92 10 174 80 180 176c2 16 2 33 2 49v60v13v3h6h95c1 -1 2 -1 2 -2v-3v-90c0 -9 -1 -18 -1 -27c-15 -143 -117 -257 -263 -275c-12 -2 -23 -3 -35 -5
h-3zM550 0h-102h-3c-10 1 -20 1 -31 1h-44c-5 1 -10 1 -16 1c-1 0 -3 -1 -5 0c-1 1 0 2 0 3v24v72v4c3 1 4 1 5 1h104h78h18c27 0 47 20 49 47c0 12 -6 27 -15 36c-8 7 -17 12 -27 13c-3 1 -7 1 -11 1h-48c-9 0 -18 1 -27 3c-41 12 -73 50 -73 94v140v89v17c0 1 0 3 1 4
s2 0 4 0h69h27v-2v-4v-174c0 -7 1 -14 2 -21c9 -32 33 -49 65 -49c61 -3 111 -40 127 -101c3 -13 4 -26 3 -40v-20c-6 -57 -39 -108 -94 -129c-11 -5 -24 -8 -36 -9c-6 0 -11 0 -17 -1h-3zM950 244v-97c-9 0 -19 1 -28 1c-150 15 -272 143 -272 296v49v51v3h2h2h98v-2v-3
v-98c2 -93 62 -171 153 -193c10 -3 21 -4 31 -5c5 -1 9 -1 14 -2zM152 600v100h2h3h547c2 0 4 1 6 0c0 -30 4 -53 22 -78c5 -7 10 -13 17 -19c1 -1 1 -2 2 -3h-1h-598zM949 710v-25c-3 -9 -4 -18 -8 -27c-16 -38 -54 -62 -92 -62c-49 0 -93 37 -100 86c-8 56 28 106 84 115
c1 0 2 1 3 1h25c1 0 2 -1 3 -1c35 -6 60 -25 75 -56c5 -10 7 -21 10 -31z" />
    <glyph glyph-name="uni3078" unicode="&#x3078;" 
d="M322 700l6 -6c206 -206 411 -412 617 -618c2 -2 3 -4 5 -5l-71 -71c-193 195 -388 390 -585 586c-14 -14 -36 -29 -48 -43c-59 -67 -98 -114 -98 -231v-39v-162v-9h-98v241c0 2 1 5 1 7c8 102 49 190 121 263c29 30 60 58 90 87h60z" />
    <glyph glyph-name="uni3079" unicode="&#x3079;" 
d="M322 700l6 -6c206 -206 411 -412 617 -618c2 -2 3 -4 5 -5l-71 -71c-193 195 -388 390 -585 586c-14 -14 -36 -29 -48 -43c-59 -67 -98 -114 -98 -231v-39v-162v-9h-98v241c0 2 1 5 1 7c8 102 49 190 121 263c29 30 60 58 90 87h60zM706 934c32 -85 63 -170 94 -256
c-31 -12 -61 -23 -94 -34c-30 85 -61 170 -92 256c19 7 37 14 56 20c11 5 24 9 35 14h1zM857 934c31 -85 62 -170 93 -256c-31 -12 -62 -23 -93 -34c-32 85 -62 170 -93 256c19 7 37 14 55 20c13 5 24 9 36 14h2z" />
    <glyph glyph-name="uni307A" unicode="&#x307a;" 
d="M848 680c16 0 30 14 30 31s-14 31 -30 31c-18 0 -32 -14 -32 -31s14 -31 32 -31zM262 700h60l6 -6c206 -206 411 -412 617 -618c2 -2 3 -4 5 -5l-71 -71c-193 195 -388 390 -585 586c-14 -14 -36 -29 -48 -43c-59 -67 -98 -114 -98 -231v-210h-98v241c0 2 1 5 1 7
c8 102 49 190 121 263c29 30 60 58 90 87zM950 723v-25c-2 -9 -5 -18 -8 -28c-16 -37 -54 -62 -93 -62c-52 0 -95 37 -103 88c-8 56 29 107 85 116c2 0 3 1 4 1h25c1 0 2 -1 3 -1c35 -6 61 -26 76 -57c5 -10 7 -21 11 -32z" />
    <glyph glyph-name="uni307B" unicode="&#x307b;" horiz-adv-x="1001" 
d="M649 192c-18 0 -37 1 -56 0c-28 -2 -47 -32 -37 -59c6 -18 22 -29 44 -29s45 13 49 37c2 16 0 33 0 51zM349 0h-20c-17 3 -35 5 -52 9c-131 32 -227 152 -227 287v404h101v-399c0 -99 65 -179 162 -198c11 -2 23 -3 36 -4v-99zM950 0h-98c0 33 2 72 -2 104
c-7 47 -53 87 -99 84v-37c0 -82 -65 -151 -148 -151c-75 0 -135 45 -150 121c-15 80 44 161 125 170c21 2 42 1 63 1c3 1 6 0 9 0v110h-199v97h199v104h-198v97h498v-97h-199v-103h199v-98h-198v-111c15 -3 30 -4 45 -8c82 -20 145 -88 152 -173c3 -37 1 -72 1 -110z" />
    <glyph glyph-name="uni307C" unicode="&#x307c;" 
d="M568 192c-18 0 -37 1 -56 0c-28 -2 -47 -32 -37 -59c6 -18 22 -29 44 -29s45 13 49 37c2 16 0 33 0 51zM349 0h-20c-17 3 -35 5 -52 9c-131 32 -227 152 -227 287v404h101v-399c0 -99 65 -179 162 -198c11 -2 23 -3 36 -4v-99zM869 0h-98c0 33 2 72 -2 104
c-7 47 -53 87 -99 84v-37c0 -82 -65 -151 -148 -151c-75 0 -135 45 -150 121c-15 80 44 161 125 170c21 2 42 1 63 1c3 1 6 0 9 0v110h-199v97h199v104h-198v97h251l37 -97h11v-103h199v-98h-198v-111c15 -3 30 -4 45 -8c82 -20 145 -88 152 -173c3 -37 1 -72 1 -110z
M799 632c-32 -12 -63 -23 -94 -35c-32 86 -63 172 -95 260c31 11 63 23 94 35c32 -87 63 -174 95 -260zM761 857c33 11 63 23 96 35c30 -87 63 -174 93 -260c-30 -12 -61 -23 -93 -35c-33 86 -63 172 -96 260z" />
    <glyph glyph-name="uni307D" unicode="&#x307d;" 
d="M648 198h-3h-16c-12 1 -24 0 -36 0c-9 -1 -17 -4 -24 -10c-12 -11 -18 -24 -16 -41c5 -27 25 -37 50 -37c20 0 43 16 45 37c1 4 1 9 1 13v36c0 1 0 1 -1 2zM880 704c0 16 -13 30 -31 30s-30 -15 -30 -31c0 -15 12 -30 30 -30s31 14 31 31zM50 399v302h4h94h4v-2v-4v-395
c0 -31 6 -61 20 -88c33 -70 89 -100 162 -112c5 0 10 -1 15 -1c1 -1 1 -2 1 -2v-3v-90v-4h-24l-1 1c-5 0 -10 1 -16 2c-158 18 -258 156 -258 310c-1 28 0 55 -1 82v4zM950 498v-99c-1 0 -3 1 -4 1h-190h-4v-2v-99v-2c2 0 5 -1 7 -1c10 -1 19 -3 28 -4
c81 -13 149 -84 159 -165c2 -9 2 -17 3 -25v-51c0 -14 0 -29 -1 -43v-4c-1 -1 -2 -1 -2 -1h-2h-88c-1 0 -3 0 -4 1v2v28c0 18 0 36 -1 54c0 59 -34 100 -95 107h-3s-1 -1 -2 -1v-4v-26v-17c-6 -79 -69 -141 -150 -141c-80 0 -139 52 -150 132c-2 24 1 47 10 69
c20 48 61 81 112 90c9 1 18 1 27 1c9 1 19 1 29 1h18h3v2v98h-2h-4h-188h-5v3v1v89v4c1 1 1 1 2 1h4h188h5v3c0 28 0 96 -1 100h-2h-3h-192c-1 1 -1 2 -1 3v2v88v5h2h258c1 -1 0 -2 0 -3c0 -33 13 -65 37 -88c1 -1 2 -2 3 -4v-82v-12c1 -3 0 -7 1 -11l1 -1h4h189
c1 0 3 1 4 1zM950 699l-1 -12c-1 -5 -2 -10 -4 -15c-11 -39 -50 -70 -92 -70c-48 0 -92 31 -102 79c-3 10 -3 21 -2 31c4 48 37 82 83 91c0 0 6 1 10 1h11c33 0 64 -18 82 -46c4 -8 8 -16 11 -25l4 -13v-21z" />
    <glyph glyph-name="uni307E" unicode="&#x307e;" 
d="M442 204h-240c-3 0 -6 0 -8 -1c-25 -5 -43 -27 -40 -52c2 -25 23 -44 49 -44c33 -1 67 -1 100 0c12 0 25 1 36 5c50 13 83 44 103 92zM949 0h-98c0 114 -92 204 -206 204h-96c-7 -19 -11 -38 -19 -56c-58 -122 -148 -146 -269 -146c-27 0 -54 1 -81 3
c-65 5 -120 62 -128 126c-9 82 41 151 122 166c9 2 18 3 28 3h248v102h-197v97h197v101h-197v100h498v-100h-200v-100h197v-98h-197v-101h8c29 0 59 1 88 0c150 0 279 -112 299 -261c1 -13 2 -27 3 -40z" />
    <glyph glyph-name="uni307F" unicode="&#x307f;" 
d="M456 297h-205c-4 0 -9 -1 -13 -2c-48 -7 -84 -48 -84 -96s35 -91 84 -97c21 -2 49 -1 70 -1c64 0 119 41 140 100c11 31 6 63 8 96zM753 700h100v-301h98v-102h-97c-7 -166 -129 -297 -297 -297v98c121 0 197 111 195 198h-199v-9c-1 -27 1 -55 -3 -82
c-13 -78 -54 -136 -123 -175c-37 -21 -77 -31 -120 -30c-24 0 -54 -1 -77 1c-87 8 -160 75 -176 161c-18 97 37 193 132 226c21 7 43 11 65 11h204v201h-404v100h502v-301h200v301z" />
    <glyph glyph-name="uni3080" unicode="&#x3080;" horiz-adv-x="999" 
d="M203 349c-29 0 -51 -20 -51 -48c0 -27 21 -48 48 -49c30 0 52 21 52 48c1 28 -21 49 -49 49zM299 98h223c72 0 125 53 125 126v78h101v-6c0 -35 2 -70 -1 -104c-10 -111 -106 -192 -215 -192c-93 0 -186 1 -279 0c-48 -1 -81 49 -57 93c9 17 17 34 26 52c1 2 9 8 7 8
c-59 -7 -108 9 -145 54c-28 34 -38 74 -31 118c11 70 71 127 148 127c16 0 32 -3 49 -8c0 18 -1 37 -1 56h-198v101h199v98h101v-98h204v-101h-204v-218c0 -54 -12 -105 -36 -153c-6 -10 -10 -20 -16 -31zM949 272l-87 -51c-83 142 -165 285 -247 427l87 51
c82 -142 165 -285 247 -427z" />
    <glyph glyph-name="uni3081" unicode="&#x3081;" horiz-adv-x="999" 
d="M195 404c-22 -33 -37 -67 -39 -105c-2 -36 -3 -71 -1 -107c3 -53 44 -92 97 -92c37 0 69 13 100 33c-52 90 -104 180 -157 271zM272 469c51 -88 102 -172 153 -261c15 24 25 62 25 95v197c-62 2 -124 0 -178 -31zM429 0c-9 15 -18 26 -27 42c-38 -23 -94 -41 -138 -41
c-124 0 -213 81 -213 207c0 31 -1 62 1 93c6 73 34 133 82 187c5 6 5 9 2 15c-27 45 -57 102 -84 148c29 17 57 33 87 50c25 -44 55 -98 81 -142c10 5 20 10 30 14c43 20 88 29 135 29h65v98h101v-98h10c37 0 74 2 110 -1c106 -10 187 -58 238 -150
c65 -114 48 -255 -39 -352c-54 -59 -119 -93 -198 -99c-41 -3 -83 0 -125 0v99h103c102 0 188 78 198 179c13 111 -67 209 -178 221c-7 1 -14 1 -20 1h-99v-192c1 -71 -23 -135 -67 -192c-3 -3 -3 -6 -1 -9l33 -57c-29 -17 -58 -33 -87 -50z" />
    <glyph glyph-name="uni3082" unicode="&#x3082;" 
d="M553 399v-98h-284c-8 -43 -2 -83 21 -120c33 -54 82 -82 145 -83h207c106 0 194 79 205 185c1 7 1 13 2 21h101c-1 -12 -1 -24 -3 -36c-14 -106 -69 -185 -164 -235c-42 -22 -87 -33 -135 -33h-242c-125 0 -232 93 -249 217c-4 27 -4 55 1 84h-108v98h8h134l43 101h-185
v99h9c68 0 145 0 213 -1l40 102h115l-39 -101h364v-99h-9c-129 0 -524 0 -395 0l-42 -101h247z" />
    <glyph glyph-name="uni3084" unicode="&#x3084;" 
d="M459 700c13 -35 26 -71 39 -107h9h190c125 0 228 -88 244 -212c10 -76 -6 -146 -58 -205c-46 -53 -106 -82 -176 -84c-53 -1 -106 0 -159 0h-5v101h8h144c74 0 135 50 149 124c15 82 -49 173 -131 182c-8 1 -16 1 -24 1h-157l46 -128c-32 -11 -63 -23 -94 -34l-59 162
h-145c41 -155 86 -319 127 -474c-32 -9 -64 -17 -97 -26c-7 28 -14 55 -22 82c-36 134 -77 284 -112 418h-126v93h101l-21 81l57 15c12 4 25 7 37 11h3c10 -35 19 -71 28 -106h135c-8 24 -17 48 -26 71c3 2 6 2 8 3c28 11 57 21 85 32h2z" />
    <glyph glyph-name="uni3086" unicode="&#x3086;" horiz-adv-x="1001" 
d="M654 503v-10c0 -64 0 -128 -1 -192c0 -20 -3 -39 -5 -58c-2 -12 -6 -24 -9 -36c17 0 33 -1 48 0c17 1 34 1 48 5c61 15 103 65 111 130c7 57 -26 116 -78 144c-35 20 -74 18 -114 17zM50 99v507h100v-204c100 127 238 202 401 204v94h102v-94h54c124 0 230 -96 241 -221
c7 -70 -8 -134 -51 -189c-65 -78 -132 -92 -226 -92c-31 0 -61 2 -86 5c-73 -73 -127 -102 -231 -109v98c50 2 95 18 133 52c-90 61 -136 145 -140 254h98c3 -73 34 -130 97 -171c2 14 6 26 7 38c2 10 2 20 2 30v202c-188 7 -400 -153 -402 -404h-99z" />
    <glyph glyph-name="uni3088" unicode="&#x3088;" horiz-adv-x="999" 
d="M448 295c-69 0 -137 1 -206 0c-47 -1 -87 -43 -89 -90c-2 -50 32 -94 80 -100c12 -1 23 -2 34 -2c68 0 116 8 158 69c25 37 25 80 23 123zM323 0h-86c-13 3 -26 4 -38 8c-92 25 -154 112 -148 208c7 106 96 189 202 189h194v295h101v-106h401v-94h-400v-100
c19 -2 39 -4 57 -7c141 -27 236 -151 236 -292c1 -33 1 -67 1 -101h-96c-1 3 -1 6 -1 9v86c0 92 -62 171 -151 193c-15 4 -30 5 -46 8v-12c-1 -21 0 -42 -2 -64c-8 -97 -77 -181 -170 -209c-17 -5 -36 -7 -54 -11z" />
    <glyph glyph-name="uni3089" unicode="&#x3089;" 
d="M320 302h9h269c86 0 153 -68 152 -154c-1 -81 -68 -147 -149 -148h-203h-339h-9v101h9h543c29 0 50 21 50 49c0 31 -25 46 -53 46h-512h-37v106h30c28 0 53 3 80 16c102 49 164 126 181 238c6 45 3 96 3 142v2h103c0 -43 2 -89 -1 -132c-6 -114 -53 -186 -126 -266z
M564 700c129 -129 257 -258 386 -386c-24 -23 -47 -47 -70 -70c-129 128 -258 257 -386 386z" />
    <glyph glyph-name="uni308A" unicode="&#x308a;" 
d="M50 199v501h100v-244c50 33 88 45 150 45h403c125 0 229 -90 244 -215c9 -73 -4 -136 -52 -194c-47 -58 -109 -89 -183 -91c-52 -2 -104 -1 -157 -1h-3v102h8h140c87 0 155 64 152 152c-3 72 -60 134 -131 143c-7 0 -14 1 -22 1h-345s-199 -85 -199 -198v-1
c28 0 -68 0 -97 0h-8z" />
    <glyph glyph-name="uni308B" unicode="&#x308b;" 
d="M346 99h149c0 10 0 20 -1 29c-1 37 -31 68 -68 70c-27 2 -55 1 -83 1c-3 0 -7 -1 -10 -2c-24 -6 -40 -29 -37 -54s24 -44 50 -44zM50 698h545v-98c-85 0 -104 -42 -179 -97l-4 -4h9c76 0 206 1 281 0c100 -1 174 -47 221 -135c23 -43 29 -90 25 -139
c-8 -118 -100 -213 -218 -225c-12 -2 -23 -2 -35 -2h-347c-88 0 -155 70 -153 157c2 77 66 142 143 145c33 2 67 2 101 -1c75 -6 141 -68 153 -143c3 -18 3 -37 5 -57c87 0 120 -3 153 9c101 36 131 169 56 245c-30 30 -67 45 -110 45c-95 0 -245 1 -340 0
c-69 0 -168 -31 -202 -91l-3 -6h-101v88c0 6 2 9 7 13c85 64 218 129 303 193c1 1 3 3 6 5h-316v98z" />
    <glyph glyph-name="uni308C" unicode="&#x308c;" horiz-adv-x="1001" 
d="M361 0h-99v155l-1 1c-40 -51 -80 -104 -120 -156c-26 21 -52 41 -78 61c64 86 130 171 196 255c2 2 3 6 3 9v169c0 1 0 2 -1 3h-210v99h211v105h99v-206c16 11 31 21 46 31c23 16 44 32 69 44c28 15 58 21 87 21c106 0 189 -86 189 -191v-249c0 -29 24 -50 50 -50
s49 22 49 48v49c0 1 1 1 1 2h99v-19c0 -25 1 -49 -6 -72c-20 -67 -82 -109 -146 -109c-85 0 -151 65 -152 151c-1 88 0 176 0 263c0 47 -33 78 -77 78c-40 0 -77 -23 -105 -49c-33 -31 -67 -60 -100 -90c-2 -2 -4 -7 -4 -11v-332v-10z" />
    <glyph glyph-name="uni308D" unicode="&#x308d;" 
d="M597 700v-98c-85 0 -104 -42 -179 -97l-4 -4h9c76 0 206 1 281 0c100 -1 174 -47 221 -135c23 -43 29 -90 25 -139c-8 -118 -100 -213 -218 -225c-12 -2 -23 -2 -35 -2h-539v101c66 0 565 -1 594 9c101 36 131 169 56 245c-30 30 -67 45 -110 45c-95 0 -245 1 -340 0
c-69 0 -172 -31 -205 -97h-103v96l312 198c1 1 3 3 6 5h-135h-181v98h545z" />
    <glyph glyph-name="uni308F" unicode="&#x308f;" 
d="M350 219v-219h-101v150h-1l-117 -152c-27 21 -53 41 -80 61l198 258v175v8h-199v101h199v99h100v-245c46 27 86 45 141 45c73 1 145 1 217 0c119 0 221 -89 238 -206c9 -64 1 -124 -33 -179c-43 -67 -104 -106 -183 -114c-32 -3 -64 -1 -96 -2h-82v101h8
c47 0 94 -1 141 0c63 1 110 29 136 86c27 57 19 112 -22 161c-29 34 -66 51 -110 51c-54 1 -108 1 -161 0c-96 0 -180 -74 -193 -170c-1 -3 0 -6 0 -9z" />
    <glyph glyph-name="uni3090" unicode="&#x3090;" 
d="M350 206v194h-25c-77 -1 -145 -53 -165 -129c-8 -26 -7 -54 -7 -81c3 -48 41 -90 93 -90c60 0 103 47 104 106zM759 153c0 29 -22 51 -53 51c-30 0 -54 -21 -54 -49c0 -29 22 -52 53 -52s54 22 54 50zM50 180v51c0 2 1 4 1 6c12 132 107 236 238 260c21 4 40 5 60 7v96
h-299v100h400v-199h230c10 0 21 -2 31 -3c102 -15 175 -69 216 -163c32 -73 32 -147 -9 -220c-3 -5 -3 -8 1 -12c10 -13 21 -27 31 -42c-28 -20 -54 -39 -81 -60c-10 12 -18 24 -26 35h-2c-40 -26 -84 -35 -129 -35c-29 0 -59 4 -84 20c-58 34 -83 86 -76 153
c8 75 74 132 148 132c63 0 114 -36 138 -94c2 -2 4 -5 6 -7h2c2 10 4 20 5 31c4 90 -67 165 -157 165h-244v-195c0 -111 -89 -206 -202 -206c-89 0 -153 46 -186 129c-6 16 -8 33 -12 51z" />
    <glyph glyph-name="uni3092" unicode="&#x3092;" horiz-adv-x="999" 
d="M949 102v-102c-284 0 -1 0 -285 1c-63 0 -117 23 -159 69c-70 75 -79 181 -26 268c1 2 2 4 4 7c-14 4 -29 6 -43 6c-13 0 -25 -2 -37 -5c-83 -21 -102 -73 -120 -145c-1 -4 -2 -8 -4 -13c-32 9 -64 18 -97 26c26 96 51 190 77 286h-209v96h234l28 104l98 -26l-21 -78h315
v-96h-340l-17 -61c2 1 2 1 3 1c32 10 64 15 96 15c42 0 85 -10 126 -31c2 -2 6 -1 8 0l314 73v-104l-229 -63c34 -56 34 -116 32 -178h-101c2 46 2 92 -27 131c-21 -22 -31 -60 -24 -93c11 -51 55 -87 109 -87z" />
    <glyph glyph-name="uni3093" unicode="&#x3093;" 
d="M326 389c-35 -130 -69 -259 -104 -389c-32 9 -63 17 -95 25c33 121 65 242 98 364h-175v99h201c18 65 40 148 57 212c32 -8 63 -17 95 -25c-15 -56 -35 -130 -50 -187h8h106c100 0 183 -74 192 -173c4 -38 1 -77 2 -116c0 -53 37 -97 93 -97c46 0 87 32 94 78
c1 6 1 13 2 19h98c-2 -14 -2 -27 -5 -41c-22 -93 -96 -157 -192 -157c-92 0 -176 68 -191 161c-2 18 -2 36 -3 54c0 24 1 47 -1 70c-7 56 -53 100 -108 103c-41 1 -81 0 -122 0z" />
    <glyph glyph-name="uni30A0" unicode="&#x30a0;" horiz-adv-x="900" 
d="M166 203v102h567l1 -102h-568zM166 398v102h567l1 -102h-568z" />
    <glyph glyph-name="uni30A2" unicode="&#x30a2;" 
d="M50 599v101h900v-107c-34 -50 -66 -100 -103 -148c-68 -90 -161 -143 -274 -145h-15l-1 93c87 0 166 43 216 115c20 28 37 59 56 91h-779zM50 0v98c0 0 32 3 48 6c128 21 229 123 245 253c5 44 3 97 3 143h104v-10v-101c-5 -218 -184 -389 -400 -389z" />
    <glyph glyph-name="uni30A4" unicode="&#x30a4;" 
d="M229 203h-179v94h131c102 1 192 34 268 100l348 303c138 -1 90 0 153 0l-399 -350v-16c1 -105 1 -210 1 -315v-19h-101v135v138l-11 -8c-66 -41 -134 -58 -211 -62z" />
    <glyph glyph-name="uni30A6" unicode="&#x30a6;" 
d="M449 600v99h104v-98h397v-101h-91c0 -56 -2 -109 -18 -164c-47 -170 -189 -300 -363 -330c-25 -4 -51 -5 -76 -6h-141v98l123 1c180 1 336 132 368 310c5 30 7 58 5 90h-604v-198h-102l-1 299h399z" />
    <glyph glyph-name="uni30A8" unicode="&#x30a8;" 
d="M51 0v100h394v500h-199v100h501v-99h-196v-501l400 -1v-99h-900z" />
    <glyph glyph-name="uni30AA" unicode="&#x30aa;" 
d="M50 0v102h123c173 0 339 128 368 302h-246h-245v96h600v200h101c1 -64 0 -134 0 -199h198v-96h-198l1 -405h-102l1 402h-2l-2 -13c-38 -227 -233 -382 -458 -389c-42 -1 -84 0 -125 0h-14z" />
    <glyph glyph-name="uni30AB" unicode="&#x30ab;" 
d="M343 700h103l1 -199h503v-287c1 -113 -93 -214 -207 -214h-190v98l166 1c31 -1 59 7 83 27c27 23 43 52 44 88v185h-398c-10 -223 -172 -399 -398 -399v98c171 8 294 132 294 302h-294v100h293v200z" />
    <glyph glyph-name="uni30AC" unicode="&#x30ac;" horiz-adv-x="1001" 
d="M50 401v99h296c0 66 1 134 1 200h105c0 -66 -2 -132 -2 -200h500v-8v-294c0 -2 -1 -5 -1 -7c-13 -87 -60 -147 -142 -177c-18 -7 -35 -9 -55 -13h-204v99h9h162c74 0 126 54 126 128v164v9h-393c0 -194 -136 -353 -324 -392c-18 -4 -36 -5 -54 -8h-24v99c18 2 36 3 52 5
c124 25 216 115 240 238c4 20 5 39 8 58h-300zM700 892c33 -86 65 -173 97 -261c-32 -11 -62 -23 -94 -34c-32 86 -64 173 -96 261c19 6 38 14 57 20c12 5 25 9 36 14zM854 892c32 -86 64 -173 96 -261c-32 -11 -62 -23 -94 -34c-32 86 -64 173 -96 261c19 6 38 14 57 20
c12 5 25 9 36 14h1z" />
    <glyph glyph-name="uni30AD" unicode="&#x30ad;" 
d="M950 301v-100h-347l46 -175c-32 -9 -63 -17 -97 -26l-53 200h-449v101h421l-26 98h-292v100h265l-46 175l97 26l54 -201h326v-100h-299l26 -98h374z" />
    <glyph glyph-name="uni30AE" unicode="&#x30ae;" 
d="M700 892c33 -86 65 -173 97 -261c-32 -11 -62 -23 -94 -34c-32 86 -64 173 -96 261c19 6 38 14 57 20c12 5 25 9 36 14zM854 892c32 -86 64 -173 96 -261c-32 -11 -62 -23 -94 -34c-32 86 -64 173 -96 261c19 6 38 14 57 20c12 5 25 9 36 14h1zM950 301v-100h-347
l46 -175c-32 -9 -63 -17 -97 -26l-53 200h-449v101h421l-26 98h-292v100h265l-46 175l97 26l54 -201h326v-100h-299l26 -98h374z" />
    <glyph glyph-name="uni30AF" unicode="&#x30af;" 
d="M949 600c1 -14 1 -26 2 -38c0 -33 -1 -67 0 -100c1 -253 -206 -462 -457 -462h-142v99l124 1c166 2 311 113 357 273c11 40 16 82 13 126c-5 0 -9 1 -14 1h-473c-9 0 -15 -2 -20 -9c-62 -73 -138 -124 -233 -131c-20 -2 -36 -2 -55 0v91c96 0 178 45 230 127
c24 36 47 74 69 111c5 8 6 11 6 11h93v-56l-28 -43c528 -1 0 -1 528 -1z" />
    <glyph glyph-name="uni30B0" unicode="&#x30b0;" 
d="M701 892c33 -86 65 -173 97 -261c-32 -11 -62 -23 -94 -34c-32 86 -64 173 -96 261c19 6 38 14 57 20c12 5 25 9 36 14zM855 892c32 -86 64 -173 96 -261c-32 -11 -62 -23 -94 -34c-32 86 -64 173 -96 261c19 6 38 14 57 20c12 5 25 9 36 14h1zM951 597v-136
c2 -252 -207 -462 -457 -462l-141 1l-1 99l124 1c167 2 311 112 357 272c12 41 16 83 13 126c-5 1 -9 1 -13 1c-158 0 -316 0 -473 1c-9 0 -15 -3 -21 -10c-61 -72 -138 -124 -233 -131c-20 -1 -35 -1 -55 1v91c96 0 177 45 231 126l69 111c5 8 5 11 5 11l93 1v-57l-28 -43
h245s19 -47 20 -47s122 46 122 46l20 -49z" />
    <glyph glyph-name="uni30B1" unicode="&#x30b1;" 
d="M151 101h18c37 0 74 0 112 1c178 4 329 133 360 309c5 28 5 59 5 89h-12h-275c-9 0 -14 -3 -20 -9c-74 -88 -174 -134 -288 -134v94c97 0 179 46 232 128c23 36 46 73 68 110c5 8 7 11 7 11l92 -1v-55l-29 -43h530v-101h-200v-36c0 -226 -162 -423 -390 -457
c-28 -4 -56 -5 -84 -6c-36 -1 -72 0 -108 0h-18v100z" />
    <glyph glyph-name="uni30B2" unicode="&#x30b2;" horiz-adv-x="1002" 
d="M827 551l124 46v-98c-5 0 -114 1 -119 1h-83v-36c1 -52 -8 -103 -25 -153c-55 -160 -198 -279 -365 -304c-27 -4 -55 -5 -83 -6c-36 -1 -73 0 -109 0h-17v100h17c38 0 75 0 112 1c179 4 329 133 360 309c5 26 5 60 5 89h-285c-8 0 -15 -2 -20 -9
c-62 -73 -138 -124 -233 -131c-20 -2 -36 -2 -55 0v91c96 0 178 45 230 127c24 36 47 74 69 111c5 8 6 11 6 11h93v-56l-28 -43l245 -1l19 -46l123 46zM701 892h1c32 -86 64 -173 96 -261c-32 -11 -62 -23 -94 -34c-32 86 -64 173 -96 261c19 6 38 14 57 20c12 5 25 9 36 14
zM854 892h1c32 -86 64 -173 96 -261c-32 -11 -62 -23 -94 -34c-32 86 -64 173 -96 261c19 6 38 14 57 20c12 5 25 9 36 14z" />
    <glyph glyph-name="uni30B3" unicode="&#x30b3;" 
d="M848 97h-798v101h798l2 402h-800v100h899l1 -700h-102v97z" />
    <glyph glyph-name="uni30B4" unicode="&#x30b4;" 
d="M701 892c33 -86 65 -173 97 -261c-32 -11 -62 -23 -94 -34c-32 86 -64 173 -96 261c19 6 38 14 57 20c12 5 25 9 36 14zM855 892c32 -86 64 -173 96 -261c-32 -11 -62 -23 -94 -34c-32 86 -64 173 -96 261c19 6 38 14 57 20c12 5 25 9 36 14h1zM849 100h-798v101h798v349
l101 33l1 -580h-102v97zM51 599v101h560l34 -101h-594z" />
    <glyph glyph-name="uni30B5" unicode="&#x30b5;" 
d="M950 499v-99c-66 0 -135 -1 -202 -1v-183c2 -100 -70 -198 -184 -214c-8 -1 -17 -2 -26 -2h-290v99h267c68 0 127 46 129 117v182h-293v-197h-100v198h-201v100h200v201h100v-199l294 -1v200h104v-201h202z" />
    <glyph glyph-name="uni30B7" unicode="&#x30b7;" 
d="M499 287c-17 -30 -33 -57 -50 -87c-101 59 -200 116 -301 174c17 29 33 57 50 87c101 -58 200 -116 301 -174zM521 0h-471v100h428c177 1 335 132 365 306c4 22 5 45 6 67v129h101v-144c-1 -218 -158 -407 -373 -450c-15 -3 -31 -5 -46 -7c-4 -1 -7 0 -10 -1zM203 613
c17 30 33 58 50 87c100 -58 200 -115 301 -173c-17 -29 -33 -58 -50 -87c-101 58 -201 115 -301 173z" />
    <glyph glyph-name="uni30B9" unicode="&#x30b9;" 
d="M548 599h-497v101h601l1 -243c0 -18 -2 -36 -3 -54l12 -9c43 -30 87 -59 130 -89c89 -63 140 -148 156 -255c3 -15 2 -35 2 -50h-95c0 87 -31 163 -103 216c-40 30 -80 59 -128 83l-7 -14c-77 -174 -226 -277 -415 -285h-151v98h122c208 1 375 173 375 378v123z" />
    <glyph glyph-name="uni30BB" unicode="&#x30bb;" 
d="M950 100v-99h-12c-157 -1 -313 -1 -470 0c-115 0 -209 94 -210 208c-1 63 0 127 0 190v19c-61 -16 -121 -32 -182 -48c-9 32 -17 63 -26 96c69 19 138 37 208 56v177h104v-149c95 25 188 50 281 75s187 50 281 75l26 -97s0 -1 -3 -8c-19 -55 -37 -110 -59 -163
c-43 -109 -122 -181 -234 -217c-4 -1 -7 -1 -12 -2c-8 30 -16 59 -24 89c5 2 9 4 13 5c89 31 147 91 174 181c7 24 13 47 20 71c0 3 1 5 2 11c-156 -41 -309 -83 -464 -124c0 -5 -1 -9 -1 -13v-210c-1 -67 54 -123 121 -123h130h317h20z" />
    <glyph glyph-name="uni30BD" unicode="&#x30bd;" horiz-adv-x="1001" 
d="M264 270c-31 -11 -61 -22 -94 -34c-40 110 -80 219 -120 329c32 12 62 23 93 34c7 -10 110 -286 121 -329zM242 0v98h234c211 2 374 171 374 381v221h99l1 -246c-2 -255 -215 -454 -465 -454h-243z" />
    <glyph glyph-name="uni30BF" unicode="&#x30bf;" horiz-adv-x="1001" 
d="M50 356v94c95 0 180 49 232 129c23 36 45 73 68 110c5 8 7 11 7 11h91v-60l-28 -39h530v-145c-1 -245 -205 -456 -451 -456h-146v100l151 2c53 2 121 25 162 54l-223 130c17 29 33 57 51 87l256 -148c69 79 100 170 95 275h-498l-9 -9c-57 -68 -130 -112 -218 -129
c-22 -4 -45 -5 -70 -6z" />
    <glyph glyph-name="uni30C0" unicode="&#x30c0;" 
d="M846 499c-5 1 -9 1 -14 1h-473c-9 0 -15 -2 -21 -9c-61 -72 -138 -124 -232 -131c-20 -1 -36 -1 -55 1l-1 91c96 0 178 44 231 126c24 37 47 74 69 111c5 8 6 11 6 11l93 1v-57l-29 -43h246l19 -47l123 46l19 -49l119 45l5 5v-145c-1 -245 -205 -456 -451 -456h-146v100
l151 2c53 2 121 25 162 54l-223 130c17 29 33 57 51 87l256 -148c69 78 99 170 95 274zM701 892h1c32 -86 64 -173 96 -261c-32 -11 -62 -23 -94 -34c-32 86 -64 173 -96 261c19 6 38 14 57 20c12 5 25 9 36 14zM854 892h1c32 -86 64 -173 96 -261c-32 -11 -62 -23 -94 -34
c-32 86 -64 173 -96 261c19 6 38 14 57 20c12 5 25 9 36 14z" />
    <glyph glyph-name="uni30C1" unicode="&#x30c1;" horiz-adv-x="1001" 
d="M50 404h397v196h-297v100h702v-49v-50h-299v-196l397 -1v-101h-398v-90c0 -118 -95 -212 -214 -213h-187v100l174 1c62 0 118 47 122 110v92l-397 1v100z" />
    <glyph glyph-name="uni30C2" unicode="&#x30c2;" 
d="M700 892c33 -86 65 -173 97 -261c-32 -11 -62 -23 -94 -34c-32 86 -64 173 -96 261c19 6 38 14 57 20c12 5 25 9 36 14zM854 892c32 -86 64 -173 96 -261c-32 -11 -62 -23 -94 -34c-32 86 -64 173 -96 261c19 6 38 14 57 20c12 5 25 9 36 14h1zM50 404h397v196h-297v100
h477l37 -99h-111v-196l397 -1v-101h-398v-90c0 -118 -95 -212 -214 -213h-187v100l174 1c62 0 118 47 122 110v92l-397 1v100z" />
    <glyph glyph-name="uni30C4" unicode="&#x30c4;" 
d="M50 0v100h428c177 1 335 132 365 306c4 22 5 45 6 67v129h101v-144c-1 -218 -158 -407 -373 -450c-15 -3 -31 -5 -46 -7c-4 -1 -7 0 -10 -1h-471zM203 613c17 30 33 58 50 87c100 -58 200 -115 301 -173c-17 -29 -33 -58 -50 -87c-101 58 -201 115 -301 173zM499 287
c-17 -30 -33 -57 -50 -87c-101 59 -200 116 -301 174c17 29 33 57 50 87c101 -58 200 -116 301 -174z" />
    <glyph glyph-name="uni30C5" unicode="&#x30c5;" 
d="M700 892c33 -86 65 -173 97 -261c-32 -11 -62 -23 -94 -34c-32 86 -64 173 -96 261c19 6 38 14 57 20c12 5 25 9 36 14zM854 892c32 -86 64 -173 96 -261c-32 -11 -62 -23 -94 -34c-32 86 -64 173 -96 261c19 6 38 14 57 20c12 5 25 9 36 14h1zM50 0v100h428
c177 1 335 132 365 306c4 22 5 45 6 67v77l101 32v-124c-1 -218 -158 -407 -373 -450c-15 -3 -31 -5 -46 -7c-4 -1 -7 0 -10 -1h-471zM203 613c17 30 33 58 50 87c100 -58 200 -115 301 -173c-17 -29 -33 -58 -50 -87c-101 58 -201 115 -301 173zM499 287
c-17 -30 -33 -57 -50 -87c-101 59 -200 116 -301 174c17 29 33 57 50 87c101 -58 200 -116 301 -174z" />
    <glyph glyph-name="uni30C6" unicode="&#x30c6;" horiz-adv-x="1001" 
d="M746 602h-498v98h498v-98zM482 401h-432v99h900v-98h-364c-4 -140 -61 -254 -176 -334c-66 -46 -151 -68 -222 -67v97c171 7 294 133 294 303z" />
    <glyph glyph-name="uni30C7" unicode="&#x30c7;" 
d="M658 602h-410v98h374zM482 401h-432v99h900v-98h-364c-4 -140 -61 -254 -176 -334c-66 -46 -151 -68 -222 -67v97c171 7 294 133 294 303zM700 892c33 -86 65 -173 97 -261c-32 -11 -62 -23 -94 -34c-32 86 -64 173 -96 261c19 6 38 14 57 20c12 5 25 9 36 14zM854 892
c32 -86 64 -173 96 -261c-32 -11 -62 -23 -94 -34c-32 86 -64 173 -96 261c19 6 38 14 57 20c12 5 25 9 36 14h1z" />
    <glyph glyph-name="uni30C8" unicode="&#x30c8;" 
d="M51 700h103v-200c165 0 331 1 497 -1c154 -1 282 -98 299 -253c0 -2 -1 -3 0 -5v-43h-99v31c0 99 -101 167 -200 167h-302h-183c-3 0 -6 0 -11 -1l-1 -395h-103v700z" />
    <glyph glyph-name="uni30C9" unicode="&#x30c9;" 
d="M51 700h103v-200c165 0 331 1 497 -1c154 -1 282 -98 299 -253c0 -2 -1 -3 0 -5v-43h-99v31c0 99 -101 167 -200 167h-302h-183c-3 0 -6 0 -11 -1l-1 -395h-103v700zM700 892c33 -86 65 -173 97 -261c-32 -11 -62 -23 -94 -34c-32 86 -64 173 -96 261c19 6 38 14 57 20
c12 5 25 9 36 14zM854 892c32 -86 64 -173 96 -261c-32 -11 -62 -23 -94 -34c-32 86 -64 173 -96 261c19 6 38 14 57 20c12 5 25 9 36 14h1z" />
    <glyph glyph-name="uni30CA" unicode="&#x30ca;" 
d="M289 0v97c107 0 193 87 194 194v108l-432 1v100h432v200h100v-200h368v-102h-367v-13v-92c-1 -146 -107 -270 -250 -292l-8 -1h-37z" />
    <glyph glyph-name="uni30CB" unicode="&#x30cb;" 
d="M950 101v-101h-900v102c297 0 602 -1 900 -1zM743 700l1 -99h-498l-1 99h498z" />
    <glyph glyph-name="uni30CC" unicode="&#x30cc;" 
d="M49 100h320c99 -1 185 32 258 98c5 4 9 9 14 14c-114 66 -227 131 -341 197l51 87c117 -67 234 -135 352 -203c30 66 47 105 47 183v114v9h-600v101h702v-240c-1 -48 -7 -95 -23 -140c-10 -27 -21 -54 -32 -81c50 -29 102 -59 154 -89c-17 -30 -33 -59 -50 -88
c-56 32 -110 63 -162 94c-79 -79 -162 -131 -275 -150c-16 -3 -33 -4 -49 -6h-366v100z" />
    <glyph glyph-name="uni30CD" unicode="&#x30cd;" 
d="M559 304l-2 -304h-104v235c-5 -2 -9 -3 -12 -4c-54 -23 -111 -33 -169 -33h-222v95h181c102 1 193 33 270 99c38 32 71 69 105 102l6 6h-359v99h206v101h104v-100h200v-100l-176 -168zM595 299h354v-100h-355z" />
    <glyph glyph-name="uni30CE" unicode="&#x30ce;" 
d="M50 100h10h408c213 0 378 169 378 382v209v9h103c0 -83 2 -167 0 -250c-3 -114 -43 -214 -119 -299c-93 -101 -204 -145 -338 -151h-442v100z" />
    <glyph glyph-name="uni30CF" unicode="&#x30cf;" 
d="M50 3v97c14 0 26 0 38 2c91 19 156 97 156 190v408h100v-408c-1 -145 -105 -280 -249 -289h-9h-36zM914 0c-8 0 -15 2 -22 3c-138 29 -236 151 -236 291v404l100 1v-405c1 -101 75 -187 177 -195h17v-99h-36z" />
    <glyph glyph-name="uni30D0" unicode="&#x30d0;" 
d="M700 892c33 -86 65 -173 97 -261c-32 -11 -62 -23 -94 -34c-32 86 -64 173 -96 261c19 6 38 14 57 20c12 5 25 9 36 14zM854 892c32 -86 64 -173 96 -261c-32 -11 -62 -23 -94 -34c-32 86 -64 173 -96 261c19 6 38 14 57 20c12 5 25 9 36 14h1zM50 3v97c14 0 26 0 38 2
c91 19 156 97 156 190v408h100v-408c-1 -145 -105 -280 -249 -289h-9h-36zM761 1c-8 0 -15 2 -22 3c-138 29 -236 151 -236 291v404l100 1v-405c1 -76 36 -133 101 -171c23 -14 49 -22 76 -24h17v-99h-36z" />
    <glyph glyph-name="uni30D1" unicode="&#x30d1;" 
d="M848 680c16 0 30 14 30 31s-14 31 -30 31c-18 0 -32 -14 -32 -31s14 -31 32 -31zM86 3h-36v97c14 0 26 0 38 2c91 19 156 97 156 190v408h100v-408c-1 -145 -105 -280 -249 -289h-9zM797 3h-36c-8 0 -15 1 -22 3c-138 29 -236 150 -236 290v405l100 1v-406
c1 -101 76 -187 177 -194c5 0 11 0 17 -1v-98zM950 723v-25c-2 -9 -5 -18 -8 -28c-16 -37 -54 -62 -93 -62c-52 0 -95 37 -103 88c-8 56 29 107 85 116c2 0 3 1 4 1h25c1 0 2 -1 3 -1c35 -6 61 -26 76 -57c5 -10 7 -21 11 -32z" />
    <glyph glyph-name="uni30D2" unicode="&#x30d2;" 
d="M51 213v487h104v-302c100 0 187 56 236 142l86 160h109l-129 -227c-60 -100 -148 -157 -264 -173c-6 -1 -12 -1 -18 -1c-6 -1 -12 -1 -20 -2c1 -32 1 -62 2 -93c0 -2 1 -4 2 -6c11 -53 58 -92 112 -94c8 -1 15 -1 23 -1h658v-103h-687c-119 0 -213 95 -214 213z" />
    <glyph glyph-name="uni30D3" unicode="&#x30d3;" 
d="M51 213v487h104v-302c100 0 187 56 236 142l86 160h109l-129 -227c-60 -100 -148 -157 -264 -173c-6 -1 -12 -1 -18 -1c-6 -1 -12 -1 -20 -2c1 -32 1 -62 2 -93c0 -2 1 -4 2 -6c11 -53 58 -92 112 -94c8 -1 15 -1 23 -1h658v-103h-687c-119 0 -213 95 -214 213zM701 892
c33 -86 65 -173 97 -261c-32 -11 -62 -23 -94 -34c-32 86 -64 173 -96 261c19 6 38 14 57 20c12 5 25 9 36 14zM855 892c32 -86 64 -173 96 -261c-32 -11 -62 -23 -94 -34c-32 86 -64 173 -96 261c19 6 38 14 57 20c12 5 25 9 36 14h1z" />
    <glyph glyph-name="uni30D4" unicode="&#x30d4;" 
d="M849 680c16 0 30 14 30 31s-14 31 -30 31c-18 0 -32 -14 -32 -31s14 -31 32 -31zM51 213v487h104v-302c100 0 187 56 236 142l86 160h109l-129 -227c-60 -100 -148 -157 -264 -173c-6 -1 -12 -1 -18 -1c-6 -1 -12 -1 -20 -2c1 -32 1 -62 2 -93c0 -2 1 -4 2 -6
c11 -53 58 -92 112 -94c8 -1 15 -1 23 -1h658v-103h-687c-119 0 -213 95 -214 213zM951 723v-25c-2 -9 -5 -18 -8 -28c-16 -37 -54 -62 -93 -62c-52 0 -95 37 -103 88c-8 56 29 107 85 116c2 0 3 1 4 1h25c1 0 2 -1 3 -1c35 -6 61 -26 76 -57c5 -10 7 -21 11 -32z" />
    <glyph glyph-name="uni30D5" unicode="&#x30d5;" 
d="M51 700h899v-256c-6 -239 -204 -443 -444 -443h-252v96h223c191 0 350 137 371 328l3 175h-800v100z" />
    <glyph glyph-name="uni30D6" unicode="&#x30d6;" 
d="M849 549l101 34l1 -139c-6 -239 -204 -443 -444 -443h-252v96h223c191 0 350 137 371 328v124zM701 892c33 -86 65 -173 97 -261c-32 -11 -62 -23 -94 -34c-32 86 -64 173 -96 261c19 6 38 14 57 20c12 5 25 9 36 14zM855 892c32 -86 64 -173 96 -261
c-32 -11 -62 -23 -94 -34c-32 86 -64 173 -96 261c19 6 38 14 57 20c12 5 25 9 36 14h1zM51 599v101h560l34 -101h-594z" />
    <glyph glyph-name="uni30D7" unicode="&#x30d7;" 
d="M850 668c17 0 30 14 30 30c0 17 -13 31 -30 31c-18 0 -31 -15 -31 -31c0 -17 14 -30 31 -30zM508 0h-253v96h237c15 0 30 3 45 5c180 24 315 186 315 368v91c35 3 62 12 89 35l10 10v-100c0 -21 0 -42 -1 -63c-6 -208 -149 -383 -353 -431c-17 -3 -35 -6 -53 -8
c-12 -2 -24 -3 -36 -3zM746 599h-695v101h659c1 -1 1 -2 1 -3c3 -38 11 -67 39 -95l3 -3h-7zM850 799h7c3 0 5 0 8 -1c37 -9 60 -22 77 -58c2 -5 3 -11 5 -16c1 -3 2 -7 3 -11c1 -2 1 -4 1 -6v-18c0 -1 0 -3 -1 -4c-4 -28 -20 -53 -42 -70c-14 -9 -30 -16 -47 -17
c-11 -2 -22 -1 -33 2c-41 9 -69 38 -77 80c-4 20 -2 39 6 58c15 34 41 51 76 60c5 2 9 1 14 1h3z" />
    <glyph glyph-name="uni30D8" unicode="&#x30d8;" 
d="M322 700l6 -6c206 -206 411 -412 617 -618c2 -2 3 -4 5 -5l-71 -71c-193 195 -388 390 -585 586c-14 -14 -36 -29 -48 -43c-59 -67 -98 -114 -98 -231v-39v-162v-9h-98v241c0 2 1 5 1 7c8 102 49 190 121 263c29 30 60 58 90 87h60z" />
    <glyph glyph-name="uni30D9" unicode="&#x30d9;" horiz-adv-x="1001" 
d="M322 700l6 -6c206 -206 411 -412 617 -618c2 -2 3 -4 5 -5l-71 -71c-193 195 -388 390 -585 586c-14 -14 -36 -29 -48 -43c-59 -67 -98 -114 -98 -231v-39v-162v-9h-98v241c0 2 1 5 1 7c8 102 49 190 121 263c29 30 60 58 90 87h60zM700 892c33 -86 65 -173 97 -261
c-32 -11 -62 -23 -94 -34c-32 86 -64 173 -96 261c19 6 38 14 57 20c12 5 25 9 36 14zM854 892c32 -86 64 -173 96 -261c-32 -11 -62 -23 -94 -34c-32 86 -64 173 -96 261c19 6 38 14 57 20c12 5 25 9 36 14h1z" />
    <glyph glyph-name="uni30DA" unicode="&#x30da;" 
d="M848 680c16 0 30 14 30 31s-14 31 -30 31c-18 0 -32 -14 -32 -31s14 -31 32 -31zM262 700h60l6 -6c206 -206 411 -412 617 -618c2 -2 3 -4 5 -5l-71 -71c-193 195 -388 390 -585 586c-14 -14 -36 -29 -48 -43c-59 -67 -98 -114 -98 -231v-210h-98v241c0 2 1 5 1 7
c8 102 49 190 121 263c29 30 60 58 90 87zM950 723v-25c-2 -9 -5 -18 -8 -28c-16 -37 -54 -62 -93 -62c-52 0 -95 37 -103 88c-8 56 29 107 85 116c2 0 3 1 4 1h25c1 0 2 -1 3 -1c35 -6 61 -26 76 -57c5 -10 7 -21 11 -32z" />
    <glyph glyph-name="uni30DB" unicode="&#x30db;" 
d="M553 700v-102h294v-100h-294v-498h-103v498h-298v100h298v102h103zM248 399h102v-8v-92c-1 -144 -107 -270 -249 -293c-16 -3 -33 -4 -50 -6v97c15 3 31 4 46 8c88 21 151 100 151 191v95v8zM650 399h102v-8v-94c0 -103 77 -188 179 -197c6 -1 11 -1 18 -2v-97
c-12 1 -23 1 -35 2c-147 21 -261 139 -264 288v108z" />
    <glyph glyph-name="uni30DC" unicode="&#x30dc;" horiz-adv-x="999" 
d="M553 700v-101h124l17 -48l127 47v-100h-268v-498h-103v498h-298v101h298v101h103zM248 399h102v-8v-92c-1 -144 -107 -270 -249 -293c-16 -3 -33 -4 -50 -6v97c15 3 31 4 46 8c88 21 151 100 151 191v95v8zM650 399h102v-8v-94c0 -103 77 -188 179 -197c6 -1 11 -1 18 -2
v-97c-12 1 -23 1 -35 2c-147 21 -261 139 -264 288v108zM704 889c32 -85 64 -170 95 -256c-31 -11 -61 -23 -93 -34c-31 85 -62 170 -93 256c18 7 37 14 56 20c11 5 24 9 35 14zM855 889c31 -85 62 -170 94 -256c-32 -11 -62 -23 -93 -34c-31 85 -62 170 -93 256
c18 7 37 14 56 20c11 5 24 9 35 14h1z" />
    <glyph glyph-name="uni30DD" unicode="&#x30dd;" 
d="M875 697c0 17 -13 31 -30 31c-16 0 -30 -13 -30 -30c-1 -18 13 -31 30 -31c16 0 30 14 30 30zM247 391v8h102v-8v-92c0 -144 -107 -269 -249 -293c-16 -3 -33 -4 -50 -6v98c16 2 31 3 46 7c88 21 151 100 151 191v95zM447 495h-300v2v3v91v4c1 1 1 1 2 1h5h287h6v12v11
v81h2c1 1 3 1 4 1h98v-3v-4v-97c1 0 2 -1 3 -1h4h184c3 0 6 -1 8 -3c28 -25 61 -37 98 -37v-3v-55v-2c-1 0 -2 -1 -3 -1h-4h-284c-2 0 -4 1 -5 0s-1 -2 -1 -2v-5v-483v-5c-34 -1 -68 -1 -101 -1h-2c-1 1 -1 2 -1 2v5v483v6zM649 399h102v-8v-94c0 -103 77 -187 179 -197
c6 -1 12 -1 18 -2v-97c-11 1 -23 1 -34 3c-147 19 -262 139 -265 288v107zM946 697c0 -8 -1 -16 -4 -24c-2 -7 -4 -15 -8 -22c-16 -33 -51 -55 -87 -55c-49 0 -92 34 -101 83c-10 53 23 103 74 116c4 1 8 1 12 3h3h20c1 0 3 0 4 -1c4 -1 8 -1 11 -2c20 -5 37 -15 50 -31
c10 -11 17 -24 21 -39l3 -9c1 -4 2 -8 2 -13c-1 -2 0 -4 0 -6z" />
    <glyph glyph-name="uni30DE" unicode="&#x30de;" 
d="M817 598h-767v102h900v-99s-1 -1 -4 -6c-65 -87 -128 -174 -192 -262c-46 -63 -104 -109 -177 -137l-6 -3c-1 0 -1 -1 -3 -3c59 -34 118 -68 178 -103c-16 -29 -33 -57 -50 -87c-202 117 -403 232 -605 349c18 29 34 58 51 87c6 -4 12 -7 17 -10
c89 -51 179 -103 268 -155c7 -4 15 -6 24 -5c99 5 175 48 231 130c42 62 83 124 125 186c3 4 5 9 10 16z" />
    <glyph glyph-name="uni30DF" unicode="&#x30df;" 
d="M642 95c-12 -32 -23 -62 -35 -95c-186 68 -371 135 -557 202c1 4 2 6 3 9c10 28 20 56 31 86c186 -67 371 -135 558 -202zM235 403c12 32 23 62 34 94c183 -66 365 -132 548 -198c-12 -32 -23 -63 -35 -95c-182 66 -364 132 -547 199zM435 605c12 33 23 63 35 95
c159 -58 318 -116 478 -174c-12 -32 -23 -63 -35 -94c-160 58 -318 115 -478 173z" />
    <glyph glyph-name="uni30E0" unicode="&#x30e0;" 
d="M820 98l-758 -97c-4 34 -8 66 -12 100c49 6 97 12 146 18c52 193 104 387 155 581c33 -9 64 -17 97 -26c-47 -180 -96 -360 -144 -542l481 63c-25 69 -48 133 -73 203c30 13 61 22 94 35c48 -133 96 -265 144 -399c-32 -11 -62 -22 -94 -34c-12 32 -24 65 -36 98z" />
    <glyph glyph-name="uni30E1" unicode="&#x30e1;" 
d="M851 700h99v-49l-269 -305c89 -53 179 -104 269 -157c-17 -29 -33 -57 -50 -87c-96 56 -191 111 -287 166c-4 -4 -8 -7 -11 -11c-34 -38 -68 -76 -101 -115c-76 -85 -186 -142 -301 -142h-150v95h91c128 1 235 50 319 146l57 66c2 4 5 7 8 12c-100 58 -200 116 -301 175
l50 87c107 -62 212 -123 318 -184z" />
    <glyph glyph-name="uni30E2" unicode="&#x30e2;" 
d="M545 0c-18 4 -37 6 -54 12c-83 32 -130 91 -141 179c-3 21 -2 43 -2 65v45h-298v101h297v198h-297v100h788v-100h-386v-198h386v-100h-385c0 -2 -1 -2 -1 -2c0 -31 -1 -62 1 -93c5 -56 54 -103 109 -107h22c117 -1 240 -1 356 -1h11v-99h-406z" />
    <glyph glyph-name="uni30E4" unicode="&#x30e4;" 
d="M643 212l-24 89l12 5c90 31 149 92 175 184c8 26 16 53 21 80l-507 -136c36 -137 73 -272 109 -408c-32 -9 -64 -17 -97 -26c-37 136 -73 271 -110 408l-146 -39l-26 97l146 39c-14 56 -30 111 -45 168l97 27c15 -56 30 -111 46 -168l632 168l24 -101l-60 -166
c-43 -108 -121 -180 -231 -217c-3 -1 -10 -3 -12 -3c-1 0 -4 -1 -4 -1z" />
    <glyph glyph-name="uni30E6" unicode="&#x30e6;" 
d="M950 101v-101h-900v100h560l142 498h-601v101l706 1v-102l-141 -497h234z" />
    <glyph glyph-name="uni30E8" unicode="&#x30e8;" 
d="M950 700v-700h-900v100h795v199h-794v101h794v199h-795v101h900z" />
    <glyph glyph-name="uni30E9" unicode="&#x30e9;" 
d="M492 0h-344v100h310c181 0 327 108 376 286c2 5 2 10 3 16h-788v98h900c-1 -121 -22 -227 -97 -321c-87 -111 -219 -179 -360 -179zM949 700v-99h-903v99h903z" />
    <glyph glyph-name="uni30EA" unicode="&#x30ea;" 
d="M362 0h-10v101h19c42 0 85 -1 128 2c197 10 353 177 353 372c-1 70 -1 139 -1 208v16h101v-14c1 -77 1 -154 0 -231c-1 -219 -164 -409 -381 -447c-26 -4 -52 -6 -78 -7c-43 -1 -87 0 -131 0zM50 699h102v-601h-101z" />
    <glyph glyph-name="uni30EB" unicode="&#x30eb;" 
d="M50 98c68 -2 121 27 162 80c27 36 39 76 39 120v383v19h103v-15v-383c1 -141 -98 -274 -251 -301l-53 -1v98zM650 128c7 4 11 6 15 8c17 10 35 21 52 31c84 48 129 121 137 217c0 4 1 8 1 13h93v-13c-7 -118 -57 -213 -153 -282c-44 -32 -90 -62 -135 -93
c-8 -6 -13 -9 -13 -9h-96v699l99 1v-572z" />
    <glyph glyph-name="uni30EC" unicode="&#x30ec;" 
d="M50 0v700h101v-600l399 -1c140 0 262 96 294 229c3 11 6 28 6 45v25h100c0 -185 -127 -343 -308 -386c-30 -8 -61 -12 -92 -12h-500z" />
    <glyph glyph-name="uni30ED" unicode="&#x30ed;" 
d="M842 599h-688v-400h688v400zM50 0v700h901l-1 -700h-108v97h-688v-97h-104z" />
    <glyph glyph-name="uni30EF" unicode="&#x30ef;" horiz-adv-x="949" 
d="M402 0h-146v100h125c181 1 336 133 367 311c3 19 5 38 6 56l-1 130l-595 1l-1 -199h-107v301h900v-101h-94v-133c-1 -212 -139 -394 -342 -450c-36 -10 -74 -16 -112 -16z" />
    <glyph glyph-name="uni30F3" unicode="&#x30f3;" 
d="M264 270c-31 -11 -61 -22 -94 -34c-40 110 -80 219 -120 329c32 12 62 23 93 34c7 -10 110 -286 121 -329zM247 98h17c73 0 145 -1 217 0c211 2 374 171 374 381v202v19h99c1 -5 1 -9 1 -13c0 -78 1 -155 0 -233c-2 -255 -215 -454 -465 -454h-227h-16v98z" />
    <glyph glyph-name="uni30FB" unicode="&#x30fb;" horiz-adv-x="900" 
d="M547 272c-3 -9 -5 -19 -8 -28c-16 -37 -55 -62 -94 -62c-51 0 -94 37 -102 88c-9 56 29 106 85 116c1 0 3 1 4 1h24c2 0 3 -1 4 -1c35 -6 61 -26 76 -58c5 -9 7 -21 11 -31v-25z" />
    <glyph glyph-name="uni30FC" unicode="&#x30fc;" 
d="M50 197v203h899l1 -101h-802v-102h-98z" />
    <glyph glyph-name="u1F892" unicode="&#x1f892;" horiz-adv-x="900" 
d="M289 130l268 220l-269 220zM285 0l-97 1l-1 700l97 -1l429 -351z" />
    <glyph glyph-name="A.alt" horiz-adv-x="639" 
 />
    <glyph glyph-name="B.alt" horiz-adv-x="650" 
 />
    <glyph glyph-name="a.alt" horiz-adv-x="650" 
 />
    <glyph glyph-name="b.alt" horiz-adv-x="639" 
 />
    <glyph glyph-name="e.alt" horiz-adv-x="900" 
d="M101 399h698v79c0 69 -55 123 -123 123h-451c-70 0 -124 -54 -124 -124v-78zM900 0h-702c-18 4 -37 6 -54 13c-93 35 -144 109 -144 207c0 77 -1 155 0 232c1 100 47 174 135 221c33 18 69 26 106 27h87l18 -20l37 20h276c118 -1 221 -91 238 -209l3 -18v-177
c-26 0 -52 1 -78 1c-134 1 -268 2 -403 2c-90 0 -182 -1 -273 -2c-15 -1 -30 0 -45 0v-73c0 -72 54 -126 126 -126h673v-98zM673 1006h3c17 -29 33 -58 50 -88l-377 -218c-17 30 -34 58 -51 88c6 3 11 6 17 9c115 67 230 133 345 200c4 2 9 6 13 9z" />
    <glyph glyph-name="mnCompressed" 
d="M500 564l-31 -63h32zM854 500h96v-499l-97 -1l-302 327v-326h-98l-1 458l-74 -155h-99l-126 262s0 -1 -1 -1l2 -364h-104v499h145l130 -278l130 278h147v-257l252 -271v328z" />
    <glyph glyph-name="pkCompressed" 
d="M397 599l-236 -1v-95l237 -1c4 0 7 0 11 1c26 3 46 30 40 56c-5 25 -24 40 -52 40zM151 202h-101v497h351c97 0 151 -76 151 -166c0 -78 1 -158 1 -236h100l9 9c77 104 143 194 288 194v-97c-62 -8 -105 -20 -146 -73c-20 -27 -38 -54 -56 -81c0 -2 -1 -3 0 -4
c19 -26 37 -54 58 -79c34 -42 79 -66 133 -72h11v-94l-30 1c-78 9 -143 46 -192 108c-22 26 -43 52 -64 79l-11 12l-100 -1v-199h-101v410c-18 -7 -34 -8 -54 -8h-247v-200z" />
    <glyph glyph-name="pokeball" horiz-adv-x="900" 
d="M701 349h-499c-6 -109 85 -239 235 -247h14c141 0 250 115 250 247zM307 548c1 -28 21 -49 49 -49s49 22 49 50c0 27 -22 50 -48 50c-29 0 -50 -22 -50 -51zM448 1c-193 0 -349 156 -348 350c0 193 157 350 350 349c193 0 350 -158 349 -350c0 -193 -157 -349 -351 -349z
" />
  </font>
</defs>
</svg>
